<?xml version="1.0" encoding="utf-8"?>
<!-- Generator: Adobe Illustrator 18.1.1, SVG Export Plug-In . SVG Version: 6.00 Build 0)  -->
<svg version="1.1" id="Layer_1" xmlns="http://www.w3.org/2000/svg" xmlns:xlink="http://www.w3.org/1999/xlink" x="0px" y="0px"
	 width="3458.3px" height="1729.1px" viewBox="0 0 3458.3 1729.1" enable-background="new 0 0 3458.3 1729.1" xml:space="preserve">
<path fill="#FFFFFF" stroke="#000000" stroke-miterlimit="10" d="M1822.1,881.6h23.1l2.2,62.3l10,71.3l5.3-70.7l4.7-62.9l22.2-6
	l2.1-49.7l36.3-0.7l-42.3-56l30.3-1.3l-16-57.3l-12-1.3l20-26c0,0,3.3-16,3.3-18.7c0-2.7,2.7-25.3,2.7-25.3l1.7,7l1.7-4.3l10,12.7
	l4.7-26.7l-8.7-49.3l-29.4-19l-16.6-13c0,0-20.7-6-25.3-7.3s-34.7-4.7-40.7-3.3c-6,1.3-23.3,7.3-25.3,10c-2,2.7-14.7,30.7-14.7,34.7
	s-1.3,33.3-0.7,38c0.7,4.7,4.7,14,8,16.7c3.3,2.7,24,16.7,24,16.7l0.3,20.3c0,0,0.3,13,3,17s5.3,18.7,5.3,18.7l-17.3-1.3l-8,62.7
	l37,1.3l-34.3,58h30L1822.1,881.6z"/>
<polygon fill="#FFFFFF" stroke="#000000" stroke-miterlimit="10" points="1651.3,1129.2 1664.9,960.8 1697.2,960.8 1697.2,847.3 
	1720.1,823.3 1704.7,749.2 1725.3,725.8 1736,686.5 1732.7,649.2 1717.3,617.8 1696.7,599.2 1696.1,582.7 1653.4,595.2 
	1638.8,578.5 1599.2,595.2 1576.7,629.8 1564.7,687.8 1577.3,723.2 1595.3,753.2 1592,820.5 1605.3,841.8 1610,879.2 1611.8,960.8 
	1631.3,959.8 "/>
<polygon fill="#FFFFFF" stroke="#000000" stroke-miterlimit="10" points="1459.5,1014 1333.6,1014 1329.5,1097.1 1283.6,1215.8 
	1237.8,1095 1235.7,1014 1112.7,1014 1112.5,721.4 1193.6,630.8 1286.1,561 1389.9,632.7 1455.9,736.5 "/>
<rect x="1332.5" y="835" fill="#FFFFFF" stroke="#000000" stroke-miterlimit="10" width="84.9" height="141.7"/>
<rect x="1152.8" y="835" fill="#FFFFFF" stroke="#000000" stroke-miterlimit="10" width="116.7" height="108.3"/>
<circle fill="#FFFFFF" stroke="#000000" stroke-miterlimit="10" cx="1624" cy="650.7" r="7.6"/>
<circle fill="#FFFFFF" stroke="#000000" stroke-miterlimit="10" cx="1669.1" cy="651.1" r="7.6"/>
<path fill="#FFFFFF" stroke="#000000" stroke-miterlimit="10" d="M1594.1,680.6c0,23.1,69.7,68.6,116.5,4.8"/>
<circle fill="#FFFFFF" stroke="#000000" stroke-miterlimit="10" cx="1833.6" cy="633.1" r="6.5"/>
<circle fill="#FFFFFF" stroke="#000000" stroke-miterlimit="10" cx="1872" cy="633.4" r="6.5"/>
<path fill="#FFFFFF" stroke="#000000" stroke-miterlimit="10" d="M1812.7,658.6c0,16.5,53.5,49.1,89.4,3.4"/>
<path fill="#FFFFFF" stroke="#000000" stroke-miterlimit="10" d="M2026.7,1039.3"/>
<path fill="#FFFFFF" stroke="#000000" stroke-miterlimit="10" d="M2235.5,1117.1"/>
<path fill="#FFFFFF" stroke="#000000" stroke-miterlimit="10" d="M1894.7,829.8"/>
<path fill="#FFFFFF" stroke="#000000" stroke-miterlimit="10" d="M1894.7,829.8"/>
<path fill="#FFFFFF" stroke="#000000" stroke-miterlimit="10" d="M1913.3,830.2"/>
<path fill="#FFFFFF" stroke="#000000" stroke-miterlimit="10" d="M2026.4,854.6l-17.4-15l-12.6-27.6l21-29.4l25.2-10.2l-35.4-3.6
	l-4.8-37.2l42.6,33.6l54.6-35.4l-8.4,49.8l-37.8-7.2l20.4,8.4l12.6,25.2c0,0,6.6,13.8,6.6,16.8s-16.2,24-16.2,24l-18,12.6l16.2,7.2
	v28.2l45,51l-49.8-10.8l-0.6,35.4l-24-2.4l-18.6,99.6l-6-97.8l-28.8-2.4l3-32.4l-37.2,0.6l43.2-39l-1.8-31.2L2026.4,854.6z"/>
<circle fill="#FFFFFF" stroke="#000000" stroke-miterlimit="10" cx="2055.5" cy="813.7" r="9.5"/>
<circle fill="#FFFFFF" stroke="#000000" stroke-miterlimit="10" cx="2028.5" cy="812.7" r="9.5"/>
<path fill="#FFFFFF" stroke="#000000" stroke-miterlimit="10" d="M2211.7,1051.3"/>
<path fill="#FFFFFF" stroke="#000000" stroke-miterlimit="10" d="M2480.5,1137.1"/>
<path fill="#FFFFFF" stroke="#000000" stroke-miterlimit="10" d="M2211.4,866.6l-17.4-15l-12.6-27.6l21-29.4l25.2-10.2l-35.4-3.6
	l-4.8-37.2l42.6,33.6l54.6-35.4l-8.4,49.8l-37.8-7.2l20.4,8.4l12.6,25.2c0,0,6.6,13.8,6.6,16.8s-16.2,24-16.2,24l-18,12.6l16.2,7.2
	v28.2l45,51l-49.8-10.8l-0.6,35.4l-24-2.4l-18.6,99.6l-6-97.8l-28.8-2.4l3-32.4l-37.2,0.6l43.2-39l-1.8-31.2L2211.4,866.6z"/>
<circle fill="#FFFFFF" stroke="#000000" stroke-miterlimit="10" cx="2240.5" cy="825.7" r="9.5"/>
<circle fill="#FFFFFF" stroke="#000000" stroke-miterlimit="10" cx="2213.5" cy="824.7" r="9.5"/>
</svg>
