<?xml version="1.0" encoding="utf-8"?>
<!-- Generator: Adobe Illustrator 18.1.1, SVG Export Plug-In . SVG Version: 6.00 Build 0)  -->
<svg version="1.1" id="Layer_1" xmlns="http://www.w3.org/2000/svg" xmlns:xlink="http://www.w3.org/1999/xlink" x="0px" y="0px"
	 width="3458.3px" height="1729.1px" viewBox="1431 -444.2 3458.3 1729.1" enable-background="new 1431 -444.2 3458.3 1729.1"
	 xml:space="preserve">
<g>
	<g id="CIRCLE_21_">
		
			<path fill="none" stroke="#FF0000" stroke-width="0.7087" stroke-linecap="round" stroke-linejoin="round" stroke-miterlimit="10" d="
			M1920.5-226.7c0-2.3,1.9-4.3,4.3-4.3c2.4,0,4.3,1.9,4.3,4.3s-1.9,4.3-4.3,4.3C1922.4-222.4,1920.5-224.3,1920.5-226.7
			L1920.5-226.7z"/>
	</g>
	<g id="CIRCLE_20_">
		
			<path fill="none" stroke="#FF0000" stroke-width="0.7087" stroke-linecap="round" stroke-linejoin="round" stroke-miterlimit="10" d="
			M2013.7-328.4c0-2.3,1.9-4.3,4.3-4.3c2.3,0,4.3,1.9,4.3,4.3s-1.9,4.3-4.3,4.3C2015.6-324.2,2013.7-326.1,2013.7-328.4
			L2013.7-328.4z"/>
	</g>
	<g id="CIRCLE_19_">
		
			<path fill="none" stroke="#FF0000" stroke-width="0.7087" stroke-linecap="round" stroke-linejoin="round" stroke-miterlimit="10" d="
			M2058.2-253c0-2.3,1.9-4.3,4.3-4.3c2.3,0,4.3,1.9,4.3,4.3s-1.9,4.3-4.3,4.3S2058.2-250.6,2058.2-253L2058.2-253z"/>
	</g>
	<g id="CIRCLE_18_">
		
			<path fill="none" stroke="#FF0000" stroke-width="0.7087" stroke-linecap="round" stroke-linejoin="round" stroke-miterlimit="10" d="
			M1997.6-202.1c0-2.3,1.9-4.3,4.3-4.3c2.3,0,4.3,1.9,4.3,4.3s-1.9,4.3-4.3,4.3C1999.5-197.8,1997.6-199.7,1997.6-202.1
			L1997.6-202.1z"/>
	</g>
	<g id="CIRCLE_17_">
		
			<path fill="none" stroke="#FF0000" stroke-width="0.7087" stroke-linecap="round" stroke-linejoin="round" stroke-miterlimit="10" d="
			M2057-64c0-2.3,1.9-4.3,4.3-4.3c2.3,0,4.3,1.9,4.3,4.3s-1.9,4.3-4.3,4.3C2058.9-59.7,2057-61.6,2057-64L2057-64z"/>
	</g>
	<g id="CIRCLE_16_">
		
			<path fill="none" stroke="#FF0000" stroke-width="0.7087" stroke-linecap="round" stroke-linejoin="round" stroke-miterlimit="10" d="
			M2164.1-149.2c0-2.3,1.9-4.3,4.3-4.3c2.3,0,4.3,1.9,4.3,4.3s-1.9,4.3-4.3,4.3S2164.1-146.8,2164.1-149.2L2164.1-149.2z"/>
	</g>
	<g id="CIRCLE_15_">
		
			<path fill="none" stroke="#FF0000" stroke-width="0.7087" stroke-linecap="round" stroke-linejoin="round" stroke-miterlimit="10" d="
			M1950.1-398c0-3.9,3.2-7.1,7.1-7.1s7.1,3.2,7.1,7.1s-3.2,7.1-7.1,7.1S1950.1-394.1,1950.1-398L1950.1-398z"/>
	</g>
	<g id="CIRCLE_14_">
		
			<path fill="none" stroke="#FF0000" stroke-width="0.7087" stroke-linecap="round" stroke-linejoin="round" stroke-miterlimit="10" d="
			M1976.2-385.8c0-3.9,3.2-7.1,7.1-7.1c3.9,0,7.1,3.2,7.1,7.1s-3.2,7.1-7.1,7.1C1979.4-378.7,1976.2-381.9,1976.2-385.8
			L1976.2-385.8z"/>
	</g>
	<g id="CIRCLE_13_">
		
			<path fill="none" stroke="#FF0000" stroke-width="0.7087" stroke-linecap="round" stroke-linejoin="round" stroke-miterlimit="10" d="
			M2002.3-373.6c0-3.9,3.2-7.1,7.1-7.1c3.9,0,7.1,3.2,7.1,7.1c0,3.9-3.2,7.1-7.1,7.1C2005.4-366.6,2002.3-369.7,2002.3-373.6
			L2002.3-373.6z"/>
	</g>
	<g id="LWPOLYLINE_23_">
		
			<rect x="1678.8" y="98.4" transform="matrix(0.5 0.866 -0.866 0.5 956.1189 -1406.9445)" fill="none" stroke="#FF0000" stroke-width="0.7087" stroke-linecap="round" stroke-linejoin="round" stroke-miterlimit="10" width="35.4" height="52.4"/>
	</g>
	<g id="LWPOLYLINE_22_">
		
			<rect x="1764.5" y="253.6" fill="none" stroke="#FF0000" stroke-width="0.7087" stroke-linecap="round" stroke-linejoin="round" stroke-miterlimit="10" width="130.4" height="42.5"/>
	</g>
	<g id="CIRCLE_12_">
		
			<path fill="none" stroke="#FF0000" stroke-width="0.7087" stroke-linecap="round" stroke-linejoin="round" stroke-miterlimit="10" d="
			M1743.2,274.9c0-2.3,1.9-4.3,4.3-4.3s4.3,1.9,4.3,4.3c0,2.3-1.9,4.3-4.3,4.3S1743.2,277.2,1743.2,274.9L1743.2,274.9z"/>
	</g>
	<g id="CIRCLE_11_">
		
			<path fill="none" stroke="#FF0000" stroke-width="0.7087" stroke-linecap="round" stroke-linejoin="round" stroke-miterlimit="10" d="
			M1908.1,274.9c0-2.3,1.9-4.3,4.3-4.3s4.3,1.9,4.3,4.3c0,2.3-1.9,4.3-4.3,4.3S1908.1,277.2,1908.1,274.9L1908.1,274.9z"/>
	</g>
	<g id="LWPOLYLINE_21_">
		
			<rect x="2030.5" y="39.1" transform="matrix(-0.866 -0.5 0.5 -0.866 3774.9946 1117.9442)" fill="none" stroke="#FF0000" stroke-width="0.7087" stroke-linecap="round" stroke-linejoin="round" stroke-miterlimit="10" width="13.6" height="28.3"/>
	</g>
	<g id="LWPOLYLINE_20_">
		
			<rect x="2006.7" y="-48" transform="matrix(-0.5 0.866 -0.866 -0.5 2991.0547 -1794.4894)" fill="none" stroke="#FF0000" stroke-width="0.7087" stroke-linecap="round" stroke-linejoin="round" stroke-miterlimit="10" width="13.6" height="28.3"/>
	</g>
	<g id="LWPOLYLINE_19_">
		
			<rect x="1943.3" y="62" transform="matrix(-0.5 0.866 -0.866 -0.5 2991.0852 -1574.5248)" fill="none" stroke="#FF0000" stroke-width="0.7087" stroke-linecap="round" stroke-linejoin="round" stroke-miterlimit="10" width="13.6" height="28.3"/>
	</g>
	<g id="LWPOLYLINE_18_">
		
			<rect x="1702.4" y="62" transform="matrix(-0.5 -0.866 0.866 -0.5 2497.9343 1594.4614)" fill="none" stroke="#FF0000" stroke-width="0.7087" stroke-linecap="round" stroke-linejoin="round" stroke-miterlimit="10" width="13.6" height="28.3"/>
	</g>
	<g id="LWPOLYLINE_17_">
		
			<rect x="1615.1" y="39.1" transform="matrix(0.866 -0.5 0.5 0.866 190.6978 818.1182)" fill="none" stroke="#FF0000" stroke-width="0.7087" stroke-linecap="round" stroke-linejoin="round" stroke-miterlimit="10" width="13.6" height="28.3"/>
	</g>
	<g id="LWPOLYLINE_16_">
		
			<rect x="1639" y="-48" transform="matrix(-0.5 -0.866 0.866 -0.5 2497.9648 1374.4971)" fill="none" stroke="#FF0000" stroke-width="0.7087" stroke-linecap="round" stroke-linejoin="round" stroke-miterlimit="10" width="13.6" height="28.3"/>
	</g>
	<g id="LWPOLYLINE_15_">
		
			<rect x="1886.3" y="-256.6" fill="none" stroke="#FF0000" stroke-width="0.7087" stroke-linecap="round" stroke-linejoin="round" stroke-miterlimit="10" width="13.6" height="28.3"/>
	</g>
	<g id="LWPOLYLINE_14_">
		
			<rect x="1815.5" y="-313.3" fill="none" stroke="#FF0000" stroke-width="0.7087" stroke-linecap="round" stroke-linejoin="round" stroke-miterlimit="10" width="28.3" height="13.6"/>
	</g>
	<g id="LWPOLYLINE_13_">
		
			<rect x="1759.4" y="-256.6" fill="none" stroke="#FF0000" stroke-width="0.7087" stroke-linecap="round" stroke-linejoin="round" stroke-miterlimit="10" width="13.6" height="28.3"/>
	</g>
	<g id="LWPOLYLINE_12_">
		
			<path fill="none" stroke="#000000" stroke-width="0.7087" stroke-linecap="round" stroke-linejoin="round" stroke-miterlimit="10" d="
			M2105.1-22.2l-99.2,171.8l94.2,54.4c-149.4,149.3-391.5,149.3-540.9,0l94.2-54.4l-99.2-171.8L1460,32.2
			c-54.6-204,66.5-413.7,270.4-468.5v108.8h198.4v-108.8c204,54.8,325,264.4,270.5,468.5L2105.1-22.2z"/>
	</g>
</g>
</svg>
