<?xml version="1.0" encoding="utf-8"?>
<!-- Generator: Adobe Illustrator 18.1.1, SVG Export Plug-In . SVG Version: 6.00 Build 0)  -->
<svg version="1.1" id="Layer_1" xmlns="http://www.w3.org/2000/svg" xmlns:xlink="http://www.w3.org/1999/xlink" x="0px" y="0px"
	 width="3458.3px" height="1729.1px" viewBox="0 0 3458.3 1729.1" enable-background="new 0 0 3458.3 1729.1" xml:space="preserve">
<g>
	<g id="CIRCLE_21_">
		
			<path fill="none" stroke="#FF0000" stroke-width="0.7087" stroke-linecap="round" stroke-linejoin="round" stroke-miterlimit="10" d="
			M489.5,217.5c0-2.3,1.9-4.3,4.3-4.3s4.3,1.9,4.3,4.3s-1.9,4.3-4.3,4.3S489.5,219.9,489.5,217.5L489.5,217.5z"/>
	</g>
	<g id="CIRCLE_20_">
		
			<path fill="none" stroke="#FF0000" stroke-width="0.7087" stroke-linecap="round" stroke-linejoin="round" stroke-miterlimit="10" d="
			M582.7,115.8c0-2.3,1.9-4.3,4.3-4.3c2.3,0,4.3,1.9,4.3,4.3s-1.9,4.3-4.3,4.3C584.6,120,582.7,118.1,582.7,115.8L582.7,115.8z"/>
	</g>
	<g id="CIRCLE_19_">
		
			<path fill="none" stroke="#FF0000" stroke-width="0.7087" stroke-linecap="round" stroke-linejoin="round" stroke-miterlimit="10" d="
			M627.2,191.2c0-2.3,1.9-4.3,4.3-4.3c2.3,0,4.3,1.9,4.3,4.3s-1.9,4.3-4.3,4.3C629.1,195.5,627.2,193.6,627.2,191.2L627.2,191.2z"/>
	</g>
	<g id="CIRCLE_18_">
		
			<path fill="none" stroke="#FF0000" stroke-width="0.7087" stroke-linecap="round" stroke-linejoin="round" stroke-miterlimit="10" d="
			M566.6,242.1c0-2.3,1.9-4.3,4.3-4.3c2.3,0,4.3,1.9,4.3,4.3s-1.9,4.3-4.3,4.3C568.5,246.4,566.6,244.5,566.6,242.1L566.6,242.1z"/>
	</g>
	<g id="CIRCLE_17_">
		
			<path fill="none" stroke="#FF0000" stroke-width="0.7087" stroke-linecap="round" stroke-linejoin="round" stroke-miterlimit="10" d="
			M626,380.2c0-2.3,1.9-4.3,4.3-4.3c2.3,0,4.3,1.9,4.3,4.3s-1.9,4.3-4.3,4.3C627.9,384.5,626,382.6,626,380.2L626,380.2z"/>
	</g>
	<g id="CIRCLE_16_">
		
			<path fill="none" stroke="#FF0000" stroke-width="0.7087" stroke-linecap="round" stroke-linejoin="round" stroke-miterlimit="10" d="
			M733.1,295c0-2.3,1.9-4.3,4.3-4.3c2.3,0,4.3,1.9,4.3,4.3s-1.9,4.3-4.3,4.3C735,299.3,733.1,297.4,733.1,295L733.1,295z"/>
	</g>
	<g id="CIRCLE_15_">
		
			<path fill="none" stroke="#FF0000" stroke-width="0.7087" stroke-linecap="round" stroke-linejoin="round" stroke-miterlimit="10" d="
			M519.1,46.2c0-3.9,3.2-7.1,7.1-7.1s7.1,3.2,7.1,7.1s-3.2,7.1-7.1,7.1S519.1,50.1,519.1,46.2L519.1,46.2z"/>
	</g>
	<g id="CIRCLE_14_">
		
			<path fill="none" stroke="#FF0000" stroke-width="0.7087" stroke-linecap="round" stroke-linejoin="round" stroke-miterlimit="10" d="
			M545.2,58.4c0-3.9,3.2-7.1,7.1-7.1s7.1,3.2,7.1,7.1s-3.2,7.1-7.1,7.1S545.2,62.3,545.2,58.4L545.2,58.4z"/>
	</g>
	<g id="CIRCLE_13_">
		
			<path fill="none" stroke="#FF0000" stroke-width="0.7087" stroke-linecap="round" stroke-linejoin="round" stroke-miterlimit="10" d="
			M571.3,70.6c0-3.9,3.2-7.1,7.1-7.1c3.9,0,7.1,3.2,7.1,7.1c0,3.9-3.2,7.1-7.1,7.1C574.4,77.6,571.3,74.5,571.3,70.6L571.3,70.6z"/>
	</g>
	<g id="LWPOLYLINE_23_">
		
			<rect x="247.8" y="542.6" transform="matrix(-0.5 -0.866 0.866 -0.5 -94.3038 1083.0962)" fill="none" stroke="#FF0000" stroke-width="0.7087" stroke-linecap="round" stroke-linejoin="round" stroke-miterlimit="10" width="35.4" height="52.4"/>
	</g>
	<g id="LWPOLYLINE_22_">
		
			<rect x="333.5" y="697.8" fill="none" stroke="#FF0000" stroke-width="0.7087" stroke-linecap="round" stroke-linejoin="round" stroke-miterlimit="10" width="130.4" height="42.5"/>
	</g>
	<g id="CIRCLE_12_">
		
			<path fill="none" stroke="#FF0000" stroke-width="0.7087" stroke-linecap="round" stroke-linejoin="round" stroke-miterlimit="10" d="
			M312.2,719.1c0-2.3,1.9-4.3,4.3-4.3s4.3,1.9,4.3,4.3c0,2.3-1.9,4.3-4.3,4.3S312.2,721.4,312.2,719.1L312.2,719.1z"/>
	</g>
	<g id="CIRCLE_11_">
		
			<path fill="none" stroke="#FF0000" stroke-width="0.7087" stroke-linecap="round" stroke-linejoin="round" stroke-miterlimit="10" d="
			M477.1,719.1c0-2.3,1.9-4.3,4.3-4.3s4.3,1.9,4.3,4.3c0,2.3-1.9,4.3-4.3,4.3S477.1,721.4,477.1,719.1L477.1,719.1z"/>
	</g>
	<g id="LWPOLYLINE_21_">
		
			<rect x="599.5" y="483.3" transform="matrix(0.866 0.5 -0.5 0.866 329.9464 -236.5258)" fill="none" stroke="#FF0000" stroke-width="0.7087" stroke-linecap="round" stroke-linejoin="round" stroke-miterlimit="10" width="13.6" height="28.3"/>
	</g>
	<g id="LWPOLYLINE_20_">
		
			<rect x="575.8" y="396.2" transform="matrix(0.5 -0.866 0.866 0.5 -64.1189 709.7524)" fill="none" stroke="#FF0000" stroke-width="0.7087" stroke-linecap="round" stroke-linejoin="round" stroke-miterlimit="10" width="13.6" height="28.3"/>
	</g>
	<g id="LWPOLYLINE_19_">
		
			<rect x="512.3" y="506.2" transform="matrix(0.5 -0.866 0.866 0.5 -191.111 709.7524)" fill="none" stroke="#FF0000" stroke-width="0.7087" stroke-linecap="round" stroke-linejoin="round" stroke-miterlimit="10" width="13.6" height="28.3"/>
	</g>
	<g id="LWPOLYLINE_18_">
		
			<rect x="271.4" y="506.2" transform="matrix(0.5 0.866 -0.866 0.5 589.7649 19.2636)" fill="none" stroke="#FF0000" stroke-width="0.7087" stroke-linecap="round" stroke-linejoin="round" stroke-miterlimit="10" width="13.6" height="28.3"/>
	</g>
	<g id="LWPOLYLINE_17_">
		
			<rect x="184.2" y="483.3" transform="matrix(-0.866 0.5 -0.5 -0.866 605.0704 832.7229)" fill="none" stroke="#FF0000" stroke-width="0.7087" stroke-linecap="round" stroke-linejoin="round" stroke-miterlimit="10" width="13.6" height="28.3"/>
	</g>
	<g id="LWPOLYLINE_16_">
		
			<rect x="207.9" y="396.2" transform="matrix(0.5 0.866 -0.866 0.5 462.7728 19.2636)" fill="none" stroke="#FF0000" stroke-width="0.7087" stroke-linecap="round" stroke-linejoin="round" stroke-miterlimit="10" width="13.6" height="28.3"/>
	</g>
	<g id="LWPOLYLINE_15_">
		
			<rect x="455.3" y="187.6" fill="none" stroke="#FF0000" stroke-width="0.7087" stroke-linecap="round" stroke-linejoin="round" stroke-miterlimit="10" width="13.6" height="28.3"/>
	</g>
	<g id="LWPOLYLINE_14_">
		
			<rect x="384.5" y="130.9" fill="none" stroke="#FF0000" stroke-width="0.7087" stroke-linecap="round" stroke-linejoin="round" stroke-miterlimit="10" width="28.3" height="13.6"/>
	</g>
	<g id="LWPOLYLINE_13_">
		
			<rect x="328.4" y="187.6" fill="none" stroke="#FF0000" stroke-width="0.7087" stroke-linecap="round" stroke-linejoin="round" stroke-miterlimit="10" width="13.6" height="28.3"/>
	</g>
	<g id="LWPOLYLINE_12_">
		
			<path fill="none" stroke="#000000" stroke-width="0.7087" stroke-linecap="round" stroke-linejoin="round" stroke-miterlimit="10" d="
			M674.1,422l-99.2,171.8l94.2,54.4c-149.4,149.3-391.5,149.3-540.9,0l94.2-54.4L123.2,422L29,476.4
			C-25.6,272.4,95.5,62.7,299.4,7.9c0,0,0,108.8,0,108.8h198.4V7.9c204,54.8,325,264.4,270.5,468.5L674.1,422z"/>
	</g>
</g>
</svg>
