0
SECTION
2
HEADER
9
$INSUNITS
70
4
9
$ACADVER
1
AC1014
9
$HANDSEED
5
FFFF
0
ENDSEC
0
SECTION
2
TABLES
0
TABLE
2
VPORT
5
8
100
AcDbSymbolTable
0
ENDTAB
0
TABLE
2
LTYPE
5
5
100
AcDbSymbolTable
0
LTYPE
5
14
100
AcDbSymbolTableRecord
100
AcDbLinetypeTableRecord
2
BYBLOCK
70
0
0
LTYPE
5
15
100
AcDbSymbolTableRecord
100
AcDbLinetypeTableRecord
2
BYLAYER
70
0
0
ENDTAB
0
TABLE
2
LAYER
5
2
100
AcDbSymbolTable
70
2
0
LAYER
5
50
100
AcDbSymbolTableRecord
100
AcDbLayerTableRecord
2
0
70
0
6
CONTINUOUS
0
ENDTAB
0
TABLE
2
STYLE
5
3
100
AcDbSymbolTable
70
1
0
STYLE
5
11
100
AcDbSymbolTableRecord
100
AcDbTextStyleTableRecord
2
STANDARD
70
0
0
ENDTAB
0
TABLE
2
VIEW
5
6
100
AcDbSymbolTable
70
0
0
ENDTAB
0
TABLE
2
UCS
5
7
100
AcDbSymbolTable
70
0
0
ENDTAB
0
TABLE
2
APPID
5
9
100
AcDbSymbolTable
70
2
0
APPID
5
12
100
AcDbSymbolTableRecord
100
AcDbRegAppTableRecord
2
ACAD
70
0
0
ENDTAB
0
TABLE
2
DIMSTYLE
5
A
100
AcDbSymbolTable
70
1
0
ENDTAB
0
TABLE
2
BLOCK_RECORD
5
1
100
AcDbSymbolTable
70
1
0
BLOCK_RECORD
5
1F
100
AcDbSymbolTableRecord
100
AcDbBlockTableRecord
2
*MODEL_SPACE
0
BLOCK_RECORD
5
1B
100
AcDbSymbolTableRecord
100
AcDbBlockTableRecord
2
*PAPER_SPACE
0
ENDTAB
0
ENDSEC
0
SECTION
2
BLOCKS
0
BLOCK
5
20
100
AcDbEntity
100
AcDbBlockBegin
2
*MODEL_SPACE
0
ENDBLK
5
21
100
AcDbEntity
100
AcDbBlockEnd
0
BLOCK
5
1C
100
AcDbEntity
100
AcDbBlockBegin
2
*PAPER_SPACE
0
ENDBLK
5
1D
100
AcDbEntity
100
AcDbBlockEnd
0
ENDSEC
0
SECTION
2
ENTITIES
0
CIRCLE
5
100
100
AcDbEntity
8
0
100
AcDbCircle
10
33.54802670514335
20
56.448288539376037
30
0
40
1.5000000000000002
0
CIRCLE
5
101
100
AcDbEntity
8
0
100
AcDbCircle
10
66.435630208554372
20
92.333600796655517
30
0
40
1.5000000000000002
0
CIRCLE
5
102
100
AcDbEntity
8
0
100
AcDbCircle
10
82.136290780756539
20
65.719205113182127
30
0
40
1.5000000000000002
0
CIRCLE
5
103
100
AcDbEntity
8
0
100
AcDbCircle
10
60.733009040012824
20
47.759719298539082
30
0
40
1.5000000000000002
0
CIRCLE
5
104
100
AcDbEntity
8
0
100
AcDbCircle
10
81.712102298957845
20
-0.95142158352665263
30
0
40
1.5000000000000002
0
CIRCLE
5
105
100
AcDbEntity
8
0
100
AcDbCircle
10
119.49774738818
20
29.096632017186028
30
0
40
1.5000000000000002
0
CIRCLE
5
106
100
AcDbEntity
8
0
100
AcDbCircle
10
44.980673124894352
20
116.87830865976002
30
0
40
2.5000000000000089
0
CIRCLE
5
107
100
AcDbEntity
8
0
100
AcDbCircle
10
54.188760241186699
20
112.58450712047456
30
0
40
2.5
0
CIRCLE
5
108
100
AcDbEntity
8
0
100
AcDbCircle
10
63.396847357479082
20
108.290705581189
30
0
40
2.5
0
LWPOLYLINE
5
109
100
AcDbEntity
8
0
100
AcDbPolyline
90
4
70
1
43
0.0
10
-58.105607614188941
20
-66.681506470963129
10
-51.855607614188948
20
-77.50682401826856
10
-35.834137644176877
20
-68.256824018268588
10
-42.084137644176863
20
-57.431506470963143
0
LWPOLYLINE
5
110
100
AcDbEntity
8
0
100
AcDbPolyline
90
4
70
1
43
0.0
10
23
20
-128
10
23
20
-113
10
-23.000000000000007
20
-113
10
-23.000000000000007
20
-128
0
CIRCLE
5
111
100
AcDbEntity
8
0
100
AcDbCircle
10
-29
20
-120.5
30
0
40
1.5000000000000002
0
CIRCLE
5
112
100
AcDbEntity
8
0
100
AcDbCircle
10
29.185423851013184
20
-120.49851882457733
30
0
40
1.5000000000000002
0
LWPOLYLINE
5
113
100
AcDbEntity
8
0
100
AcDbPolyline
90
4
70
1
43
0.0
10
77.844210129246136
20
-39.169872981077852
10
73.687288191080839
20
-36.769872981077853
10
68.687288191080839
20
-45.430127018922235
10
72.844210129246136
20
-47.830127018922241
0
LWPOLYLINE
5
114
100
AcDbEntity
8
0
100
AcDbPolyline
90
4
70
1
43
0.0
10
61.763448015713003
20
-7.022569986145955
10
59.363448015713004
20
-11.179491924311257
10
68.023702053557372
20
-16.179491924311261
10
70.423702053557378
20
-12.022569986145959
0
LWPOLYLINE
5
115
100
AcDbEntity
8
0
100
AcDbPolyline
90
4
70
1
43
0.0
10
39.363448015712976
20
-45.820508075688799
10
36.963448015712977
20
-49.977430013854097
10
45.623702053557352
20
-54.977430013854104
10
48.023702053557358
20
-50.820508075688799
0
LWPOLYLINE
5
116
100
AcDbEntity
8
0
100
AcDbPolyline
90
4
70
1
43
0.0
10
-36.96344801571302
20
-49.977430013854075
10
-39.363448015713018
20
-45.820508075688764
10
-48.023702053557415
20
-50.820508075688764
10
-45.623702053557409
20
-54.977430013854075
0
LWPOLYLINE
5
117
100
AcDbEntity
8
0
100
AcDbPolyline
90
4
70
1
43
0.0
10
-72.844210129246179
20
-47.830127018922177
10
-68.687288191080867
20
-45.430127018922178
10
-73.687288191080867
20
-36.769872981077789
10
-77.844210129246179
20
-39.169872981077788
0
LWPOLYLINE
5
118
100
AcDbEntity
8
0
100
AcDbPolyline
90
4
70
1
43
0.0
10
-59.363448015713011
20
-11.179491924311211
10
-61.763448015713003
20
-7.0225699861459052
10
-70.423702053557392
20
-12.022569986145903
10
-68.0237020535574
20
-16.179491924311208
0
LWPOLYLINE
5
119
100
AcDbEntity
8
0
100
AcDbPolyline
90
4
70
1
43
0.0
10
20
20
57
10
24.800000000000001
20
57
10
24.800000000000001
20
67
10
20
20
67
0
LWPOLYLINE
5
120
100
AcDbEntity
8
0
100
AcDbPolyline
90
4
70
1
43
0.0
10
-5.0000000000000036
20
87
10
-5.0000000000000036
20
82.200000000000003
10
4.9999999999999964
20
82.200000000000003
10
4.9999999999999964
20
87
0
LWPOLYLINE
5
121
100
AcDbEntity
8
0
100
AcDbPolyline
90
4
70
1
43
0.0
10
-24.800000000000001
20
57
10
-20
20
57
10
-20
20
67
10
-24.800000000000001
20
67
0
LWPOLYLINE
5
122
100
AcDbEntity
8
0
100
AcDbPolyline
90
12
70
1
43
0.0
10
97.174337148168348
20
-15.689110867544711
10
62.174337148168313
20
-76.310889132455401
10
95.415897906362076
20
-95.50291318448194
42
-0.41394660305224196
10
-95.415897906362176
20
-95.502913184481812
10
-62.174337148168384
20
-76.31088913245533
10
-97.174337148168348
20
-15.689110867544622
10
-130.41589790636215
20
-34.881134919571117
42
-0.41394660305224212
10
-35
20
130.38404810405297
10
-35
20
92
10
35
20
92
10
35.000000000000078
20
130.38404810405297
42
-0.41394660305224218
10
130.41589790636212
20
-34.881134919571217
0
ENDSEC
0
SECTION
2
OBJECTS
0
DICTIONARY
5
C
100
AcDbDictionary
3
ACAD_GROUP
350
D
3
ACAD_MLINESTYLE
350
17
0
DICTIONARY
5
D
100
AcDbDictionary
0
DICTIONARY
5
1A
330
C
100
AcDbDictionary
0
DICTIONARY
5
17
100
AcDbDictionary
0
ENDSEC
0
EOF
