0
SECTION
2
HEADER
9
$INSUNITS
70
4
9
$ACADVER
1
AC1014
9
$HANDSEED
5
FFFF
0
ENDSEC
0
SECTION
2
TABLES
0
TABLE
2
VPORT
5
8
100
AcDbSymbolTable
0
ENDTAB
0
TABLE
2
LTYPE
5
5
100
AcDbSymbolTable
0
LTYPE
5
14
100
AcDbSymbolTableRecord
100
AcDbLinetypeTableRecord
2
BYBLOCK
70
0
0
LTYPE
5
15
100
AcDbSymbolTableRecord
100
AcDbLinetypeTableRecord
2
BYLAYER
70
0
0
ENDTAB
0
TABLE
2
LAYER
5
2
100
AcDbSymbolTable
70
2
0
LAYER
5
50
100
AcDbSymbolTableRecord
100
AcDbLayerTableRecord
2
0
70
0
6
CONTINUOUS
0
ENDTAB
0
TABLE
2
STYLE
5
3
100
AcDbSymbolTable
70
1
0
STYLE
5
11
100
AcDbSymbolTableRecord
100
AcDbTextStyleTableRecord
2
STANDARD
70
0
0
ENDTAB
0
TABLE
2
VIEW
5
6
100
AcDbSymbolTable
70
0
0
ENDTAB
0
TABLE
2
UCS
5
7
100
AcDbSymbolTable
70
0
0
ENDTAB
0
TABLE
2
APPID
5
9
100
AcDbSymbolTable
70
2
0
APPID
5
12
100
AcDbSymbolTableRecord
100
AcDbRegAppTableRecord
2
ACAD
70
0
0
ENDTAB
0
TABLE
2
DIMSTYLE
5
A
100
AcDbSymbolTable
70
1
0
ENDTAB
0
TABLE
2
BLOCK_RECORD
5
1
100
AcDbSymbolTable
70
1
0
BLOCK_RECORD
5
1F
100
AcDbSymbolTableRecord
100
AcDbBlockTableRecord
2
*MODEL_SPACE
0
BLOCK_RECORD
5
1B
100
AcDbSymbolTableRecord
100
AcDbBlockTableRecord
2
*PAPER_SPACE
0
ENDTAB
0
ENDSEC
0
SECTION
2
BLOCKS
0
BLOCK
5
20
100
AcDbEntity
100
AcDbBlockBegin
2
*MODEL_SPACE
0
ENDBLK
5
21
100
AcDbEntity
100
AcDbBlockEnd
0
BLOCK
5
1C
100
AcDbEntity
100
AcDbBlockBegin
2
*PAPER_SPACE
0
ENDBLK
5
1D
100
AcDbEntity
100
AcDbBlockEnd
0
ENDSEC
0
SECTION
2
ENTITIES
0
LWPOLYLINE
5
100
100
AcDbEntity
8
0
100
AcDbPolyline
90
30
70
1
43
0.0
10
32.501354969833507
20
0
10
32.501354969833507
20
20
10
22.000000178813934
20
20
10
22.000000178813927
20
7.0000000894069654
42
-0.99999999999999989
10
18.000000178813931
20
7.0000000894069636
10
18.000000178813931
20
50.000000089406967
10
12.000000178813934
20
50.000000089406967
10
12.000000178813925
20
7.0000000894069654
42
-0.99999999999999989
10
8.0000001788139308
20
7.0000000894069636
10
8.0000001788139308
20
50.000000089406967
10
2.0000001788139343
20
50.000000089406967
10
2.0000001788139254
20
7.0000000894069654
42
-0.99999999999999989
10
-1.9999998211860692
20
7.0000000894069636
10
-1.9999998211860692
20
50.000000089406967
10
-7.9999998211860657
20
50.000000089406967
10
-7.9999998211860746
20
7.0000000894069654
42
-0.99999999999999989
10
-11.999999821186069
20
7.0000000894069636
10
-11.999999821186069
20
50.000000089406967
10
-17.999999821186066
20
50.000000089406967
10
-17.999999821186073
20
7.0000000894069618
42
-0.99999999999999989
10
-21.999999821186069
20
7.0000000894069681
10
-21.999999821186069
20
20
10
-32.501354969833507
20
20
10
-32.501354969833507
20
1.2490009027033011e-15
42
-0.41762707586867781
10
-52.5
20
-20.232802399895373
10
-60
20
-20.232802399895373
10
-60
20
90
10
60
20
90
10
60
20
-20.232802399895373
10
52.499999999999993
20
-20.232802399895373
42
-0.41762707586867764
0
ENDSEC
0
SECTION
2
OBJECTS
0
DICTIONARY
5
C
100
AcDbDictionary
3
ACAD_GROUP
350
D
3
ACAD_MLINESTYLE
350
17
0
DICTIONARY
5
D
100
AcDbDictionary
0
DICTIONARY
5
1A
330
C
100
AcDbDictionary
0
DICTIONARY
5
17
100
AcDbDictionary
0
ENDSEC
0
EOF
