<?xml version="1.0" encoding="utf-8"?>
<!-- Generator: Adobe Illustrator 18.1.1, SVG Export Plug-In . SVG Version: 6.00 Build 0)  -->
<svg version="1.1" id="Layer_1" xmlns="http://www.w3.org/2000/svg" xmlns:xlink="http://www.w3.org/1999/xlink" x="0px" y="0px"
	 width="3458.3px" height="1729.1px" viewBox="0 0 3458.3 1729.1" enable-background="new 0 0 3458.3 1729.1" xml:space="preserve">
<g>
	<g id="LWPOLYLINE_1_">
		
			<path fill="none" stroke="#000000" stroke-width="0.7087" stroke-linecap="round" stroke-linejoin="round" stroke-miterlimit="10" d="
			M630.3,269.8v-56.7h-29.8v36.9c0,3.1-2.5,5.7-5.7,5.7H481.5c-3.1,0-5.7-2.5-5.7-5.7v-36.9H446v56.7c0,0.2,0,0.4,0,0.7
			c0,31.3-25.4,56.7-56.7,56.7h-21.3V14.7h340.2v312.5H687c-0.2,0-0.4,0-0.7,0C655,326.8,629.9,301.1,630.3,269.8z"/>
	</g>
</g>
<g>
	<g id="LWPOLYLINE_2_">
		
			<path fill="none" stroke="#000000" stroke-width="0.7087" stroke-linecap="round" stroke-linejoin="round" stroke-miterlimit="10" d="
			M273.7,266v-56.7h-29.8v36.9c0,3.1-2.5,5.7-5.7,5.7c-3.1,0-5.7-2.5-5.7-5.7V124.3h-17v121.9c0,3.1-2.5,5.7-5.7,5.7
			c-3.1,0-5.7-2.5-5.7-5.7V124.3h-17v121.9c0,3.1-2.5,5.7-5.7,5.7s-5.7-2.5-5.7-5.7V124.3h-17v121.9c0,3.1-2.5,5.7-5.7,5.7
			c-3.1,0-5.7-2.5-5.7-5.7V124.3h-17v121.9c0,3.1-2.5,5.7-5.7,5.7c-3.1,0-5.7-2.5-5.7-5.7v-36.9H89.4V266c0,0.2,0,0.4,0,0.7
			c0,31.3-25.4,56.7-56.7,56.7H11.5V10.9c0,0,340.2,0,340.2,0v312.5h-21.3c-0.2,0-0.4,0-0.7,0C298.4,323,273.3,297.3,273.7,266z"/>
	</g>
</g>
<g>
	<g id="LWPOLYLINE_3_">
		
			<path fill="none" stroke="#000000" stroke-width="0.7087" stroke-linecap="round" stroke-linejoin="round" stroke-miterlimit="10" d="
			M983.8,273.1v-56.7H954v36.9c0,3.1-2.5,5.7-5.7,5.7H835c-3.1,0-5.7-2.5-5.7-5.7v-36.9h-29.8v56.7c0,0.2,0,0.4,0,0.7
			c0,31.3-25.4,56.7-56.7,56.7h-21.3V18h340.2v312.5h-21.3c-0.2,0-0.4,0-0.7,0C1008.5,330.1,983.4,304.4,983.8,273.1z"/>
	</g>
</g>
</svg>
