<?xml version="1.0" encoding="utf-8"?>
<!-- Generator: Adobe Illustrator 18.1.1, SVG Export Plug-In . SVG Version: 6.00 Build 0)  -->
<svg version="1.1" id="Layer_1" xmlns="http://www.w3.org/2000/svg" xmlns:xlink="http://www.w3.org/1999/xlink" x="0px" y="0px"
	 width="3458.3px" height="1729.1px" viewBox="0 0 3458.3 1729.1" enable-background="new 0 0 3458.3 1729.1" xml:space="preserve">
<g>
	<g id="CIRCLE_13_">
		
			<path fill="none" stroke="#FF0000" stroke-width="0.7087" stroke-linecap="round" stroke-linejoin="round" stroke-miterlimit="10" d="
			M35.7,103.6c0-2.3,1.9-4.3,4.3-4.3s4.3,1.9,4.3,4.3s-1.9,4.3-4.3,4.3S35.7,105.9,35.7,103.6L35.7,103.6z"/>
	</g>
	<g id="CIRCLE_12_">
		
			<path fill="none" stroke="#FF0000" stroke-width="0.7087" stroke-linecap="round" stroke-linejoin="round" stroke-miterlimit="10" d="
			M57.7,65.5c0-2.3,1.9-4.3,4.3-4.3s4.3,1.9,4.3,4.3s-1.9,4.3-4.3,4.3S57.7,67.9,57.7,65.5L57.7,65.5z"/>
	</g>
	<g id="CIRCLE_11_">
		
			<path fill="none" stroke="#FF0000" stroke-width="0.7087" stroke-linecap="round" stroke-linejoin="round" stroke-miterlimit="10" d="
			M57.7,141.6c0-2.3,1.9-4.3,4.3-4.3s4.3,1.9,4.3,4.3s-1.9,4.3-4.3,4.3S57.7,144,57.7,141.6L57.7,141.6z"/>
	</g>
	<g id="CIRCLE_10_">
		
			<path fill="none" stroke="#FF0000" stroke-width="0.7087" stroke-linecap="round" stroke-linejoin="round" stroke-miterlimit="10" d="
			M66.9,123.4c0-9.4,7.6-17,17-17s17,7.6,17,17s-7.6,17-17,17S66.9,132.8,66.9,123.4L66.9,123.4z"/>
	</g>
	<g id="CIRCLE_9_">
		
			<path fill="none" stroke="#FF0000" stroke-width="0.7087" stroke-linecap="round" stroke-linejoin="round" stroke-miterlimit="10" d="
			M101.6,65.5c0-2.3,1.9-4.3,4.3-4.3s4.3,1.9,4.3,4.3s-1.9,4.3-4.3,4.3S101.6,67.9,101.6,65.5L101.6,65.5z"/>
	</g>
	<g id="CIRCLE_8_">
		
			<path fill="none" stroke="#FF0000" stroke-width="0.7087" stroke-linecap="round" stroke-linejoin="round" stroke-miterlimit="10" d="
			M101.6,141.6c0-2.3,1.9-4.3,4.3-4.3s4.3,1.9,4.3,4.3s-1.9,4.3-4.3,4.3S101.6,144,101.6,141.6L101.6,141.6z"/>
	</g>
	<g id="CIRCLE_7_">
		
			<path fill="none" stroke="#FF0000" stroke-width="0.7087" stroke-linecap="round" stroke-linejoin="round" stroke-miterlimit="10" d="
			M123.6,103.6c0-2.3,1.9-4.3,4.3-4.3c2.3,0,4.3,1.9,4.3,4.3s-1.9,4.3-4.3,4.3C125.5,107.8,123.6,105.9,123.6,103.6L123.6,103.6z"/>
	</g>
	<g id="LWPOLYLINE_1_">
		
			<polygon fill="none" stroke="#000000" stroke-width="0.7087" stroke-linecap="round" stroke-linejoin="round" stroke-miterlimit="10" points="
			154.2,72.4 140.6,72.4 140.6,100.7 154.2,100.7 154.2,157.4 98.1,157.4 98.1,171 69.7,171 69.7,157.4 13.6,157.4 13.6,100.7 
			27.2,100.7 27.2,72.4 13.6,72.4 13.6,15.7 154.2,15.7 		"/>
	</g>
</g>
<g>
	<g id="LWPOLYLINE_2_">
		
			<polygon fill="none" stroke="#000000" stroke-width="0.7087" stroke-linecap="round" stroke-linejoin="round" stroke-miterlimit="10" points="
			159.3,73.9 172.9,73.9 172.9,17.2 217,17.2 263.4,68.3 263.4,158.9 244.4,158.9 244.4,172.5 216,172.5 216,158.9 172.9,158.9 
			172.9,102.2 159.3,102.2 		"/>
	</g>
</g>
<g>
	<g id="LWPOLYLINE_3_">
		
			<polygon fill="none" stroke="#000000" stroke-width="0.7087" stroke-linecap="round" stroke-linejoin="round" stroke-miterlimit="10" points="
			377.4,72.4 363.8,72.4 363.8,15.7 319.7,15.7 273.3,66.8 273.3,157.4 292.3,157.4 292.3,171 320.7,171 320.7,157.4 363.8,157.4 
			363.8,100.7 377.4,100.7 		"/>
	</g>
</g>
</svg>
