0
SECTION
2
HEADER
9
$INSUNITS
70
4
9
$ACADVER
1
AC1014
9
$HANDSEED
5
FFFF
0
ENDSEC
0
SECTION
2
TABLES
0
TABLE
2
VPORT
5
8
100
AcDbSymbolTable
0
ENDTAB
0
TABLE
2
LTYPE
5
5
100
AcDbSymbolTable
0
LTYPE
5
14
100
AcDbSymbolTableRecord
100
AcDbLinetypeTableRecord
2
BYBLOCK
70
0
0
LTYPE
5
15
100
AcDbSymbolTableRecord
100
AcDbLinetypeTableRecord
2
BYLAYER
70
0
0
ENDTAB
0
TABLE
2
LAYER
5
2
100
AcDbSymbolTable
70
2
0
LAYER
5
50
100
AcDbSymbolTableRecord
100
AcDbLayerTableRecord
2
0
70
0
6
CONTINUOUS
0
ENDTAB
0
TABLE
2
STYLE
5
3
100
AcDbSymbolTable
70
1
0
STYLE
5
11
100
AcDbSymbolTableRecord
100
AcDbTextStyleTableRecord
2
STANDARD
70
0
0
ENDTAB
0
TABLE
2
VIEW
5
6
100
AcDbSymbolTable
70
0
0
ENDTAB
0
TABLE
2
UCS
5
7
100
AcDbSymbolTable
70
0
0
ENDTAB
0
TABLE
2
APPID
5
9
100
AcDbSymbolTable
70
2
0
APPID
5
12
100
AcDbSymbolTableRecord
100
AcDbRegAppTableRecord
2
ACAD
70
0
0
ENDTAB
0
TABLE
2
DIMSTYLE
5
A
100
AcDbSymbolTable
70
1
0
ENDTAB
0
TABLE
2
BLOCK_RECORD
5
1
100
AcDbSymbolTable
70
1
0
BLOCK_RECORD
5
1F
100
AcDbSymbolTableRecord
100
AcDbBlockTableRecord
2
*MODEL_SPACE
0
BLOCK_RECORD
5
1B
100
AcDbSymbolTableRecord
100
AcDbBlockTableRecord
2
*PAPER_SPACE
0
ENDTAB
0
ENDSEC
0
SECTION
2
BLOCKS
0
BLOCK
5
20
100
AcDbEntity
100
AcDbBlockBegin
2
*MODEL_SPACE
0
ENDBLK
5
21
100
AcDbEntity
100
AcDbBlockEnd
0
BLOCK
5
1C
100
AcDbEntity
100
AcDbBlockBegin
2
*PAPER_SPACE
0
ENDBLK
5
1D
100
AcDbEntity
100
AcDbBlockEnd
0
ENDSEC
0
SECTION
2
ENTITIES
0
LWPOLYLINE
5
100
100
AcDbEntity
8
0
100
AcDbPolyline
90
4
70
1
43
0.0
10
-28.400819856139812
20
20.21092654448254
10
-128.4008198561398
20
20.21092654448254
10
-128.4008198561398
20
13.410926544482539
10
-28.400819856139812
20
13.410926544482539
0
LINE
5
101
100
AcDbEntity
8
0
100
AcDbLine
10
-128.4008198561398
20
20.21092654448254
30
0
11
-128.4008198561398
21
13.410926544482539
31
0
0
LINE
5
102
100
AcDbEntity
8
0
100
AcDbLine
10
-127.89830729332573
20
20.21092654448254
30
0
11
-127.89830729332573
21
13.410926544482539
31
0
0
LINE
5
103
100
AcDbEntity
8
0
100
AcDbLine
10
-127.39579473051167
20
20.21092654448254
30
0
11
-127.39579473051167
21
13.410926544482539
31
0
0
LINE
5
104
100
AcDbEntity
8
0
100
AcDbLine
10
-126.89328216769759
20
20.21092654448254
30
0
11
-126.89328216769759
21
13.410926544482539
31
0
0
LINE
5
105
100
AcDbEntity
8
0
100
AcDbLine
10
-126.39076960488353
20
20.21092654448254
30
0
11
-126.39076960488353
21
13.410926544482539
31
0
0
LINE
5
106
100
AcDbEntity
8
0
100
AcDbLine
10
-125.88825704206945
20
20.21092654448254
30
0
11
-125.88825704206945
21
13.410926544482539
31
0
0
LINE
5
107
100
AcDbEntity
8
0
100
AcDbLine
10
-125.38574447925539
20
20.21092654448254
30
0
11
-125.38574447925539
21
13.410926544482539
31
0
0
LINE
5
108
100
AcDbEntity
8
0
100
AcDbLine
10
-124.8832319164413
20
20.21092654448254
30
0
11
-124.8832319164413
21
13.410926544482539
31
0
0
LINE
5
109
100
AcDbEntity
8
0
100
AcDbLine
10
-124.38071935362726
20
20.21092654448254
30
0
11
-124.38071935362726
21
13.410926544482539
31
0
0
LINE
5
110
100
AcDbEntity
8
0
100
AcDbLine
10
-123.87820679081317
20
20.21092654448254
30
0
11
-123.87820679081317
21
13.410926544482539
31
0
0
LINE
5
111
100
AcDbEntity
8
0
100
AcDbLine
10
-123.37569422799911
20
20.21092654448254
30
0
11
-123.37569422799911
21
13.410926544482539
31
0
0
LINE
5
112
100
AcDbEntity
8
0
100
AcDbLine
10
-122.87318166518503
20
20.21092654448254
30
0
11
-122.87318166518503
21
13.410926544482539
31
0
0
LINE
5
113
100
AcDbEntity
8
0
100
AcDbLine
10
-122.37066910237097
20
20.21092654448254
30
0
11
-122.37066910237097
21
13.410926544482539
31
0
0
LINE
5
114
100
AcDbEntity
8
0
100
AcDbLine
10
-121.86815653955689
20
20.21092654448254
30
0
11
-121.86815653955689
21
13.410926544482539
31
0
0
LINE
5
115
100
AcDbEntity
8
0
100
AcDbLine
10
-121.36564397674283
20
20.21092654448254
30
0
11
-121.36564397674283
21
13.410926544482539
31
0
0
LINE
5
116
100
AcDbEntity
8
0
100
AcDbLine
10
-120.86313141392876
20
20.21092654448254
30
0
11
-120.86313141392876
21
13.410926544482539
31
0
0
LINE
5
117
100
AcDbEntity
8
0
100
AcDbLine
10
-120.36061885111468
20
20.21092654448254
30
0
11
-120.36061885111468
21
13.410926544482539
31
0
0
LINE
5
118
100
AcDbEntity
8
0
100
AcDbLine
10
-119.8581062883006
20
20.21092654448254
30
0
11
-119.8581062883006
21
13.410926544482539
31
0
0
LINE
5
119
100
AcDbEntity
8
0
100
AcDbLine
10
-119.35559372548654
20
20.21092654448254
30
0
11
-119.35559372548654
21
13.410926544482539
31
0
0
LINE
5
120
100
AcDbEntity
8
0
100
AcDbLine
10
-118.85308116267247
20
20.21092654448254
30
0
11
-118.85308116267247
21
13.410926544482539
31
0
0
LINE
5
121
100
AcDbEntity
8
0
100
AcDbLine
10
-118.35056859985841
20
20.21092654448254
30
0
11
-118.35056859985841
21
13.410926544482539
31
0
0
LINE
5
122
100
AcDbEntity
8
0
100
AcDbLine
10
-117.84805603704433
20
20.21092654448254
30
0
11
-117.84805603704433
21
13.410926544482539
31
0
0
LINE
5
123
100
AcDbEntity
8
0
100
AcDbLine
10
-117.34554347423027
20
20.21092654448254
30
0
11
-117.34554347423027
21
13.410926544482539
31
0
0
LINE
5
124
100
AcDbEntity
8
0
100
AcDbLine
10
-116.84303091141618
20
20.21092654448254
30
0
11
-116.84303091141618
21
13.410926544482539
31
0
0
LINE
5
125
100
AcDbEntity
8
0
100
AcDbLine
10
-116.34051834860213
20
20.21092654448254
30
0
11
-116.34051834860213
21
13.410926544482539
31
0
0
LINE
5
126
100
AcDbEntity
8
0
100
AcDbLine
10
-115.83800578578804
20
20.21092654448254
30
0
11
-115.83800578578804
21
13.410926544482539
31
0
0
LINE
5
127
100
AcDbEntity
8
0
100
AcDbLine
10
-115.33549322297398
20
20.21092654448254
30
0
11
-115.33549322297398
21
13.410926544482539
31
0
0
LINE
5
128
100
AcDbEntity
8
0
100
AcDbLine
10
-114.8329806601599
20
20.21092654448254
30
0
11
-114.8329806601599
21
13.410926544482539
31
0
0
LINE
5
129
100
AcDbEntity
8
0
100
AcDbLine
10
-114.33046809734584
20
20.21092654448254
30
0
11
-114.33046809734584
21
13.410926544482539
31
0
0
LINE
5
130
100
AcDbEntity
8
0
100
AcDbLine
10
-113.82795553453177
20
20.21092654448254
30
0
11
-113.82795553453177
21
13.410926544482539
31
0
0
LINE
5
131
100
AcDbEntity
8
0
100
AcDbLine
10
-113.32544297171771
20
20.21092654448254
30
0
11
-113.32544297171771
21
13.410926544482539
31
0
0
LINE
5
132
100
AcDbEntity
8
0
100
AcDbLine
10
-112.82293040890363
20
20.21092654448254
30
0
11
-112.82293040890363
21
13.410926544482539
31
0
0
LINE
5
133
100
AcDbEntity
8
0
100
AcDbLine
10
-112.32041784608955
20
20.21092654448254
30
0
11
-112.32041784608955
21
13.410926544482539
31
0
0
LINE
5
134
100
AcDbEntity
8
0
100
AcDbLine
10
-111.81790528327548
20
20.21092654448254
30
0
11
-111.81790528327548
21
13.410926544482539
31
0
0
LINE
5
135
100
AcDbEntity
8
0
100
AcDbLine
10
-111.31539272046142
20
20.21092654448254
30
0
11
-111.31539272046142
21
13.410926544482539
31
0
0
LINE
5
136
100
AcDbEntity
8
0
100
AcDbLine
10
-110.81288015764734
20
20.21092654448254
30
0
11
-110.81288015764734
21
13.410926544482539
31
0
0
LINE
5
137
100
AcDbEntity
8
0
100
AcDbLine
10
-110.31036759483328
20
20.21092654448254
30
0
11
-110.31036759483328
21
13.410926544482539
31
0
0
LINE
5
138
100
AcDbEntity
8
0
100
AcDbLine
10
-109.80785503201921
20
20.21092654448254
30
0
11
-109.80785503201921
21
13.410926544482539
31
0
0
LINE
5
139
100
AcDbEntity
8
0
100
AcDbLine
10
-109.30534246920514
20
20.21092654448254
30
0
11
-109.30534246920514
21
13.410926544482539
31
0
0
LINE
5
140
100
AcDbEntity
8
0
100
AcDbLine
10
-108.80282990639105
20
20.21092654448254
30
0
11
-108.80282990639105
21
13.410926544482539
31
0
0
LINE
5
141
100
AcDbEntity
8
0
100
AcDbLine
10
-108.30031734357701
20
20.21092654448254
30
0
11
-108.30031734357701
21
13.410926544482539
31
0
0
LINE
5
142
100
AcDbEntity
8
0
100
AcDbLine
10
-107.79780478076292
20
20.21092654448254
30
0
11
-107.79780478076292
21
13.410926544482539
31
0
0
LINE
5
143
100
AcDbEntity
8
0
100
AcDbLine
10
-107.29529221794886
20
20.21092654448254
30
0
11
-107.29529221794886
21
13.410926544482539
31
0
0
LINE
5
144
100
AcDbEntity
8
0
100
AcDbLine
10
-106.79277965513478
20
20.21092654448254
30
0
11
-106.79277965513478
21
13.410926544482539
31
0
0
LINE
5
145
100
AcDbEntity
8
0
100
AcDbLine
10
-106.29026709232072
20
20.21092654448254
30
0
11
-106.29026709232072
21
13.410926544482539
31
0
0
LINE
5
146
100
AcDbEntity
8
0
100
AcDbLine
10
-105.78775452950664
20
20.21092654448254
30
0
11
-105.78775452950664
21
13.410926544482539
31
0
0
LINE
5
147
100
AcDbEntity
8
0
100
AcDbLine
10
-105.28524196669258
20
20.21092654448254
30
0
11
-105.28524196669258
21
13.410926544482539
31
0
0
LINE
5
148
100
AcDbEntity
8
0
100
AcDbLine
10
-104.78272940387851
20
20.21092654448254
30
0
11
-104.78272940387851
21
13.410926544482539
31
0
0
LINE
5
149
100
AcDbEntity
8
0
100
AcDbLine
10
-104.28021684106443
20
20.21092654448254
30
0
11
-104.28021684106443
21
13.410926544482539
31
0
0
LINE
5
150
100
AcDbEntity
8
0
100
AcDbLine
10
-103.77770427825035
20
20.21092654448254
30
0
11
-103.77770427825035
21
13.410926544482539
31
0
0
LINE
5
151
100
AcDbEntity
8
0
100
AcDbLine
10
-103.27519171543629
20
20.21092654448254
30
0
11
-103.27519171543629
21
13.410926544482539
31
0
0
LINE
5
152
100
AcDbEntity
8
0
100
AcDbLine
10
-102.77267915262222
20
20.21092654448254
30
0
11
-102.77267915262222
21
13.410926544482539
31
0
0
LINE
5
153
100
AcDbEntity
8
0
100
AcDbLine
10
-102.27016658980816
20
20.21092654448254
30
0
11
-102.27016658980816
21
13.410926544482539
31
0
0
LINE
5
154
100
AcDbEntity
8
0
100
AcDbLine
10
-101.76765402699408
20
20.21092654448254
30
0
11
-101.76765402699408
21
13.410926544482539
31
0
0
LINE
5
155
100
AcDbEntity
8
0
100
AcDbLine
10
-101.26514146418002
20
20.21092654448254
30
0
11
-101.26514146418002
21
13.410926544482539
31
0
0
LINE
5
156
100
AcDbEntity
8
0
100
AcDbLine
10
-100.76262890136593
20
20.21092654448254
30
0
11
-100.76262890136593
21
13.410926544482539
31
0
0
LINE
5
157
100
AcDbEntity
8
0
100
AcDbLine
10
-100.26011633855188
20
20.21092654448254
30
0
11
-100.26011633855188
21
13.410926544482539
31
0
0
LINE
5
158
100
AcDbEntity
8
0
100
AcDbLine
10
-99.757603775737792
20
20.21092654448254
30
0
11
-99.757603775737792
21
13.410926544482539
31
0
0
LINE
5
159
100
AcDbEntity
8
0
100
AcDbLine
10
-99.25509121292373
20
20.21092654448254
30
0
11
-99.25509121292373
21
13.410926544482539
31
0
0
LINE
5
160
100
AcDbEntity
8
0
100
AcDbLine
10
-98.752578650109655
20
20.21092654448254
30
0
11
-98.752578650109655
21
13.410926544482539
31
0
0
LINE
5
161
100
AcDbEntity
8
0
100
AcDbLine
10
-98.250066087295593
20
20.21092654448254
30
0
11
-98.250066087295593
21
13.410926544482539
31
0
0
LINE
5
162
100
AcDbEntity
8
0
100
AcDbLine
10
-97.747553524481518
20
20.21092654448254
30
0
11
-97.747553524481518
21
13.410926544482539
31
0
0
LINE
5
163
100
AcDbEntity
8
0
100
AcDbLine
10
-97.245040961667456
20
20.21092654448254
30
0
11
-97.245040961667456
21
13.410926544482539
31
0
0
LINE
5
164
100
AcDbEntity
8
0
100
AcDbLine
10
-96.742528398853381
20
20.21092654448254
30
0
11
-96.742528398853381
21
13.410926544482539
31
0
0
LINE
5
165
100
AcDbEntity
8
0
100
AcDbLine
10
-96.240015836039305
20
20.21092654448254
30
0
11
-96.240015836039305
21
13.410926544482539
31
0
0
LINE
5
166
100
AcDbEntity
8
0
100
AcDbLine
10
-95.737503273225229
20
20.21092654448254
30
0
11
-95.737503273225229
21
13.410926544482539
31
0
0
LINE
5
167
100
AcDbEntity
8
0
100
AcDbLine
10
-95.234990710411168
20
20.21092654448254
30
0
11
-95.234990710411168
21
13.410926544482539
31
0
0
LINE
5
168
100
AcDbEntity
8
0
100
AcDbLine
10
-94.732478147597092
20
20.21092654448254
30
0
11
-94.732478147597092
21
13.410926544482539
31
0
0
LINE
5
169
100
AcDbEntity
8
0
100
AcDbLine
10
-94.229965584783031
20
20.21092654448254
30
0
11
-94.229965584783031
21
13.410926544482539
31
0
0
LINE
5
170
100
AcDbEntity
8
0
100
AcDbLine
10
-93.727453021968955
20
20.21092654448254
30
0
11
-93.727453021968955
21
13.410926544482539
31
0
0
LINE
5
171
100
AcDbEntity
8
0
100
AcDbLine
10
-93.224940459154894
20
20.21092654448254
30
0
11
-93.224940459154894
21
13.410926544482539
31
0
0
LINE
5
172
100
AcDbEntity
8
0
100
AcDbLine
10
-92.722427896340804
20
20.21092654448254
30
0
11
-92.722427896340804
21
13.410926544482539
31
0
0
LINE
5
173
100
AcDbEntity
8
0
100
AcDbLine
10
-92.219915333526757
20
20.21092654448254
30
0
11
-92.219915333526757
21
13.410926544482539
31
0
0
LINE
5
174
100
AcDbEntity
8
0
100
AcDbLine
10
-91.717402770712667
20
20.21092654448254
30
0
11
-91.717402770712667
21
13.410926544482539
31
0
0
LINE
5
175
100
AcDbEntity
8
0
100
AcDbLine
10
-91.214890207898605
20
20.21092654448254
30
0
11
-91.214890207898605
21
13.410926544482539
31
0
0
LINE
5
176
100
AcDbEntity
8
0
100
AcDbLine
10
-90.71237764508453
20
20.21092654448254
30
0
11
-90.71237764508453
21
13.410926544482539
31
0
0
LINE
5
177
100
AcDbEntity
8
0
100
AcDbLine
10
-90.209865082270468
20
20.21092654448254
30
0
11
-90.209865082270468
21
13.410926544482539
31
0
0
LINE
5
178
100
AcDbEntity
8
0
100
AcDbLine
10
-89.707352519456393
20
20.21092654448254
30
0
11
-89.707352519456393
21
13.410926544482539
31
0
0
LINE
5
179
100
AcDbEntity
8
0
100
AcDbLine
10
-89.204839956642331
20
20.21092654448254
30
0
11
-89.204839956642331
21
13.410926544482539
31
0
0
LINE
5
180
100
AcDbEntity
8
0
100
AcDbLine
10
-88.702327393828256
20
20.21092654448254
30
0
11
-88.702327393828256
21
13.410926544482539
31
0
0
LINE
5
181
100
AcDbEntity
8
0
100
AcDbLine
10
-88.19981483101418
20
20.21092654448254
30
0
11
-88.19981483101418
21
13.410926544482539
31
0
0
LINE
5
182
100
AcDbEntity
8
0
100
AcDbLine
10
-87.697302268200104
20
20.21092654448254
30
0
11
-87.697302268200104
21
13.410926544482539
31
0
0
LINE
5
183
100
AcDbEntity
8
0
100
AcDbLine
10
-87.194789705386029
20
20.21092654448254
30
0
11
-87.194789705386029
21
13.410926544482539
31
0
0
LINE
5
184
100
AcDbEntity
8
0
100
AcDbLine
10
-86.692277142571967
20
20.21092654448254
30
0
11
-86.692277142571967
21
13.410926544482539
31
0
0
LINE
5
185
100
AcDbEntity
8
0
100
AcDbLine
10
-86.189764579757906
20
20.21092654448254
30
0
11
-86.189764579757906
21
13.410926544482539
31
0
0
LINE
5
186
100
AcDbEntity
8
0
100
AcDbLine
10
-85.68725201694383
20
20.21092654448254
30
0
11
-85.68725201694383
21
13.410926544482539
31
0
0
LINE
5
187
100
AcDbEntity
8
0
100
AcDbLine
10
-85.184739454129755
20
20.21092654448254
30
0
11
-85.184739454129755
21
13.410926544482539
31
0
0
LINE
5
188
100
AcDbEntity
8
0
100
AcDbLine
10
-84.682226891315679
20
20.21092654448254
30
0
11
-84.682226891315679
21
13.410926544482539
31
0
0
LINE
5
189
100
AcDbEntity
8
0
100
AcDbLine
10
-84.179714328501632
20
20.21092654448254
30
0
11
-84.179714328501632
21
13.410926544482539
31
0
0
LINE
5
190
100
AcDbEntity
8
0
100
AcDbLine
10
-83.677201765687542
20
20.21092654448254
30
0
11
-83.677201765687542
21
13.410926544482539
31
0
0
LINE
5
191
100
AcDbEntity
8
0
100
AcDbLine
10
-83.174689202873466
20
20.21092654448254
30
0
11
-83.174689202873466
21
13.410926544482539
31
0
0
LINE
5
192
100
AcDbEntity
8
0
100
AcDbLine
10
-82.672176640059405
20
20.21092654448254
30
0
11
-82.672176640059405
21
13.410926544482539
31
0
0
LINE
5
193
100
AcDbEntity
8
0
100
AcDbLine
10
-82.169664077245343
20
20.21092654448254
30
0
11
-82.169664077245343
21
13.410926544482539
31
0
0
LINE
5
194
100
AcDbEntity
8
0
100
AcDbLine
10
-81.667151514431268
20
20.21092654448254
30
0
11
-81.667151514431268
21
13.410926544482539
31
0
0
LINE
5
195
100
AcDbEntity
8
0
100
AcDbLine
10
-81.164638951617178
20
20.21092654448254
30
0
11
-81.164638951617178
21
13.410926544482539
31
0
0
LINE
5
196
100
AcDbEntity
8
0
100
AcDbLine
10
-80.662126388803131
20
20.21092654448254
30
0
11
-80.662126388803131
21
13.410926544482539
31
0
0
LINE
5
197
100
AcDbEntity
8
0
100
AcDbLine
10
-80.159613825989055
20
20.21092654448254
30
0
11
-80.159613825989055
21
13.410926544482539
31
0
0
LINE
5
198
100
AcDbEntity
8
0
100
AcDbLine
10
-79.65710126317498
20
20.21092654448254
30
0
11
-79.65710126317498
21
13.410926544482539
31
0
0
LINE
5
199
100
AcDbEntity
8
0
100
AcDbLine
10
-79.154588700360918
20
20.21092654448254
30
0
11
-79.154588700360918
21
13.410926544482539
31
0
0
LINE
5
200
100
AcDbEntity
8
0
100
AcDbLine
10
-78.652076137546842
20
20.21092654448254
30
0
11
-78.652076137546842
21
13.410926544482539
31
0
0
LINE
5
201
100
AcDbEntity
8
0
100
AcDbLine
10
-78.149563574732767
20
20.21092654448254
30
0
11
-78.149563574732767
21
13.410926544482539
31
0
0
LINE
5
202
100
AcDbEntity
8
0
100
AcDbLine
10
-77.647051011918705
20
20.21092654448254
30
0
11
-77.647051011918705
21
13.410926544482539
31
0
0
LINE
5
203
100
AcDbEntity
8
0
100
AcDbLine
10
-77.14453844910463
20
20.21092654448254
30
0
11
-77.14453844910463
21
13.410926544482539
31
0
0
LINE
5
204
100
AcDbEntity
8
0
100
AcDbLine
10
-76.642025886290554
20
20.21092654448254
30
0
11
-76.642025886290554
21
13.410926544482539
31
0
0
LINE
5
205
100
AcDbEntity
8
0
100
AcDbLine
10
-76.139513323476493
20
20.21092654448254
30
0
11
-76.139513323476493
21
13.410926544482539
31
0
0
LINE
5
206
100
AcDbEntity
8
0
100
AcDbLine
10
-75.637000760662417
20
20.21092654448254
30
0
11
-75.637000760662417
21
13.410926544482539
31
0
0
LINE
5
207
100
AcDbEntity
8
0
100
AcDbLine
10
-75.134488197848356
20
20.21092654448254
30
0
11
-75.134488197848356
21
13.410926544482539
31
0
0
LINE
5
208
100
AcDbEntity
8
0
100
AcDbLine
10
-74.63197563503428
20
20.21092654448254
30
0
11
-74.63197563503428
21
13.410926544482539
31
0
0
LINE
5
209
100
AcDbEntity
8
0
100
AcDbLine
10
-74.129463072220204
20
20.21092654448254
30
0
11
-74.129463072220204
21
13.410926544482539
31
0
0
LINE
5
210
100
AcDbEntity
8
0
100
AcDbLine
10
-73.626950509406143
20
20.21092654448254
30
0
11
-73.626950509406143
21
13.410926544482539
31
0
0
LINE
5
211
100
AcDbEntity
8
0
100
AcDbLine
10
-73.124437946592067
20
20.21092654448254
30
0
11
-73.124437946592067
21
13.410926544482539
31
0
0
LINE
5
212
100
AcDbEntity
8
0
100
AcDbLine
10
-72.621925383778006
20
20.21092654448254
30
0
11
-72.621925383778006
21
13.410926544482539
31
0
0
LINE
5
213
100
AcDbEntity
8
0
100
AcDbLine
10
-72.11941282096393
20
20.21092654448254
30
0
11
-72.11941282096393
21
13.410926544482539
31
0
0
LINE
5
214
100
AcDbEntity
8
0
100
AcDbLine
10
-71.616900258149855
20
20.21092654448254
30
0
11
-71.616900258149855
21
13.410926544482539
31
0
0
LINE
5
215
100
AcDbEntity
8
0
100
AcDbLine
10
-71.114387695335793
20
20.21092654448254
30
0
11
-71.114387695335793
21
13.410926544482539
31
0
0
LINE
5
216
100
AcDbEntity
8
0
100
AcDbLine
10
-70.611875132521718
20
20.21092654448254
30
0
11
-70.611875132521718
21
13.410926544482539
31
0
0
LINE
5
217
100
AcDbEntity
8
0
100
AcDbLine
10
-70.109362569707642
20
20.21092654448254
30
0
11
-70.109362569707642
21
13.410926544482539
31
0
0
LINE
5
218
100
AcDbEntity
8
0
100
AcDbLine
10
-69.60685000689358
20
20.21092654448254
30
0
11
-69.60685000689358
21
13.410926544482539
31
0
0
LINE
5
219
100
AcDbEntity
8
0
100
AcDbLine
10
-69.104337444079505
20
20.21092654448254
30
0
11
-69.104337444079505
21
13.410926544482539
31
0
0
LINE
5
220
100
AcDbEntity
8
0
100
AcDbLine
10
-68.601824881265429
20
20.21092654448254
30
0
11
-68.601824881265429
21
13.410926544482539
31
0
0
LINE
5
221
100
AcDbEntity
8
0
100
AcDbLine
10
-68.099312318451368
20
20.21092654448254
30
0
11
-68.099312318451368
21
13.410926544482539
31
0
0
LINE
5
222
100
AcDbEntity
8
0
100
AcDbLine
10
-67.596799755637292
20
20.21092654448254
30
0
11
-67.596799755637292
21
13.410926544482539
31
0
0
LINE
5
223
100
AcDbEntity
8
0
100
AcDbLine
10
-67.094287192823231
20
20.21092654448254
30
0
11
-67.094287192823231
21
13.410926544482539
31
0
0
LINE
5
224
100
AcDbEntity
8
0
100
AcDbLine
10
-66.591774630009155
20
20.21092654448254
30
0
11
-66.591774630009155
21
13.410926544482539
31
0
0
LINE
5
225
100
AcDbEntity
8
0
100
AcDbLine
10
-66.089262067195079
20
20.21092654448254
30
0
11
-66.089262067195079
21
13.410926544482539
31
0
0
LINE
5
226
100
AcDbEntity
8
0
100
AcDbLine
10
-65.586749504381018
20
20.21092654448254
30
0
11
-65.586749504381018
21
13.410926544482539
31
0
0
LINE
5
227
100
AcDbEntity
8
0
100
AcDbLine
10
-65.084236941566942
20
20.21092654448254
30
0
11
-65.084236941566942
21
13.410926544482539
31
0
0
LINE
5
228
100
AcDbEntity
8
0
100
AcDbLine
10
-64.581724378752881
20
20.21092654448254
30
0
11
-64.581724378752881
21
13.410926544482539
31
0
0
LINE
5
229
100
AcDbEntity
8
0
100
AcDbLine
10
-64.079211815938805
20
20.21092654448254
30
0
11
-64.079211815938805
21
13.410926544482539
31
0
0
LINE
5
230
100
AcDbEntity
8
0
100
AcDbLine
10
-63.57669925312473
20
20.21092654448254
30
0
11
-63.57669925312473
21
13.410926544482539
31
0
0
LINE
5
231
100
AcDbEntity
8
0
100
AcDbLine
10
-63.074186690310661
20
20.21092654448254
30
0
11
-63.074186690310661
21
13.410926544482539
31
0
0
LINE
5
232
100
AcDbEntity
8
0
100
AcDbLine
10
-62.571674127496593
20
20.21092654448254
30
0
11
-62.571674127496593
21
13.410926544482539
31
0
0
LINE
5
233
100
AcDbEntity
8
0
100
AcDbLine
10
-62.069161564682524
20
20.21092654448254
30
0
11
-62.069161564682524
21
13.410926544482539
31
0
0
LINE
5
234
100
AcDbEntity
8
0
100
AcDbLine
10
-61.566649001868456
20
20.21092654448254
30
0
11
-61.566649001868456
21
13.410926544482539
31
0
0
LINE
5
235
100
AcDbEntity
8
0
100
AcDbLine
10
-61.06413643905438
20
20.21092654448254
30
0
11
-61.06413643905438
21
13.410926544482539
31
0
0
LINE
5
236
100
AcDbEntity
8
0
100
AcDbLine
10
-60.561623876240311
20
20.21092654448254
30
0
11
-60.561623876240311
21
13.410926544482539
31
0
0
LINE
5
237
100
AcDbEntity
8
0
100
AcDbLine
10
-60.059111313426243
20
20.21092654448254
30
0
11
-60.059111313426243
21
13.410926544482539
31
0
0
LINE
5
238
100
AcDbEntity
8
0
100
AcDbLine
10
-59.556598750612167
20
20.21092654448254
30
0
11
-59.556598750612167
21
13.410926544482539
31
0
0
LINE
5
239
100
AcDbEntity
8
0
100
AcDbLine
10
-59.054086187798099
20
20.21092654448254
30
0
11
-59.054086187798099
21
13.410926544482539
31
0
0
LINE
5
240
100
AcDbEntity
8
0
100
AcDbLine
10
-58.55157362498403
20
20.21092654448254
30
0
11
-58.55157362498403
21
13.410926544482539
31
0
0
LINE
5
241
100
AcDbEntity
8
0
100
AcDbLine
10
-58.049061062169962
20
20.21092654448254
30
0
11
-58.049061062169962
21
13.410926544482539
31
0
0
LINE
5
242
100
AcDbEntity
8
0
100
AcDbLine
10
-57.546548499355893
20
20.21092654448254
30
0
11
-57.546548499355893
21
13.410926544482539
31
0
0
LINE
5
243
100
AcDbEntity
8
0
100
AcDbLine
10
-57.044035936541817
20
20.21092654448254
30
0
11
-57.044035936541817
21
13.410926544482539
31
0
0
LINE
5
244
100
AcDbEntity
8
0
100
AcDbLine
10
-56.541523373727749
20
20.21092654448254
30
0
11
-56.541523373727749
21
13.410926544482539
31
0
0
LINE
5
245
100
AcDbEntity
8
0
100
AcDbLine
10
-56.03901081091368
20
20.21092654448254
30
0
11
-56.03901081091368
21
13.410926544482539
31
0
0
LINE
5
246
100
AcDbEntity
8
0
100
AcDbLine
10
-55.536498248099605
20
20.21092654448254
30
0
11
-55.536498248099605
21
13.410926544482539
31
0
0
LINE
5
247
100
AcDbEntity
8
0
100
AcDbLine
10
-55.033985685285536
20
20.21092654448254
30
0
11
-55.033985685285536
21
13.410926544482539
31
0
0
LINE
5
248
100
AcDbEntity
8
0
100
AcDbLine
10
-54.531473122471468
20
20.21092654448254
30
0
11
-54.531473122471468
21
13.410926544482539
31
0
0
LINE
5
249
100
AcDbEntity
8
0
100
AcDbLine
10
-54.028960559657399
20
20.21092654448254
30
0
11
-54.028960559657399
21
13.410926544482539
31
0
0
LINE
5
250
100
AcDbEntity
8
0
100
AcDbLine
10
-53.526447996843331
20
20.21092654448254
30
0
11
-53.526447996843331
21
13.410926544482539
31
0
0
LINE
5
251
100
AcDbEntity
8
0
100
AcDbLine
10
-53.023935434029255
20
20.21092654448254
30
0
11
-53.023935434029255
21
13.410926544482539
31
0
0
LINE
5
252
100
AcDbEntity
8
0
100
AcDbLine
10
-52.521422871215186
20
20.21092654448254
30
0
11
-52.521422871215186
21
13.410926544482539
31
0
0
LINE
5
253
100
AcDbEntity
8
0
100
AcDbLine
10
-52.018910308401118
20
20.21092654448254
30
0
11
-52.018910308401118
21
13.410926544482539
31
0
0
LINE
5
254
100
AcDbEntity
8
0
100
AcDbLine
10
-51.516397745587042
20
20.21092654448254
30
0
11
-51.516397745587042
21
13.410926544482539
31
0
0
LINE
5
255
100
AcDbEntity
8
0
100
AcDbLine
10
-51.013885182772974
20
20.21092654448254
30
0
11
-51.013885182772974
21
13.410926544482539
31
0
0
LINE
5
256
100
AcDbEntity
8
0
100
AcDbLine
10
-50.511372619958905
20
20.21092654448254
30
0
11
-50.511372619958905
21
13.410926544482539
31
0
0
LINE
5
257
100
AcDbEntity
8
0
100
AcDbLine
10
-50.008860057144837
20
20.21092654448254
30
0
11
-50.008860057144837
21
13.410926544482539
31
0
0
LINE
5
258
100
AcDbEntity
8
0
100
AcDbLine
10
-49.506347494330768
20
20.21092654448254
30
0
11
-49.506347494330768
21
13.410926544482539
31
0
0
LINE
5
259
100
AcDbEntity
8
0
100
AcDbLine
10
-49.003834931516693
20
20.21092654448254
30
0
11
-49.003834931516693
21
13.410926544482539
31
0
0
LINE
5
260
100
AcDbEntity
8
0
100
AcDbLine
10
-48.501322368702624
20
20.21092654448254
30
0
11
-48.501322368702624
21
13.410926544482539
31
0
0
LINE
5
261
100
AcDbEntity
8
0
100
AcDbLine
10
-47.998809805888541
20
20.21092654448254
30
0
11
-47.998809805888541
21
13.410926544482539
31
0
0
LINE
5
262
100
AcDbEntity
8
0
100
AcDbLine
10
-47.49629724307448
20
20.21092654448254
30
0
11
-47.49629724307448
21
13.410926544482539
31
0
0
LINE
5
263
100
AcDbEntity
8
0
100
AcDbLine
10
-46.993784680260404
20
20.21092654448254
30
0
11
-46.993784680260404
21
13.410926544482539
31
0
0
LINE
5
264
100
AcDbEntity
8
0
100
AcDbLine
10
-46.491272117446343
20
20.21092654448254
30
0
11
-46.491272117446343
21
13.410926544482539
31
0
0
LINE
5
265
100
AcDbEntity
8
0
100
AcDbLine
10
-45.988759554632267
20
20.21092654448254
30
0
11
-45.988759554632267
21
13.410926544482539
31
0
0
LINE
5
266
100
AcDbEntity
8
0
100
AcDbLine
10
-45.486246991818206
20
20.21092654448254
30
0
11
-45.486246991818206
21
13.410926544482539
31
0
0
LINE
5
267
100
AcDbEntity
8
0
100
AcDbLine
10
-44.983734429004123
20
20.21092654448254
30
0
11
-44.983734429004123
21
13.410926544482539
31
0
0
LINE
5
268
100
AcDbEntity
8
0
100
AcDbLine
10
-44.481221866190062
20
20.21092654448254
30
0
11
-44.481221866190062
21
13.410926544482539
31
0
0
LINE
5
269
100
AcDbEntity
8
0
100
AcDbLine
10
-43.978709303375979
20
20.21092654448254
30
0
11
-43.978709303375979
21
13.410926544482539
31
0
0
LINE
5
270
100
AcDbEntity
8
0
100
AcDbLine
10
-43.476196740561917
20
20.21092654448254
30
0
11
-43.476196740561917
21
13.410926544482539
31
0
0
LINE
5
271
100
AcDbEntity
8
0
100
AcDbLine
10
-42.973684177747842
20
20.21092654448254
30
0
11
-42.973684177747842
21
13.410926544482539
31
0
0
LINE
5
272
100
AcDbEntity
8
0
100
AcDbLine
10
-42.47117161493378
20
20.21092654448254
30
0
11
-42.47117161493378
21
13.410926544482539
31
0
0
LINE
5
273
100
AcDbEntity
8
0
100
AcDbLine
10
-41.968659052119705
20
20.21092654448254
30
0
11
-41.968659052119705
21
13.410926544482539
31
0
0
LINE
5
274
100
AcDbEntity
8
0
100
AcDbLine
10
-41.466146489305643
20
20.21092654448254
30
0
11
-41.466146489305643
21
13.410926544482539
31
0
0
LINE
5
275
100
AcDbEntity
8
0
100
AcDbLine
10
-40.963633926491561
20
20.21092654448254
30
0
11
-40.963633926491561
21
13.410926544482539
31
0
0
LINE
5
276
100
AcDbEntity
8
0
100
AcDbLine
10
-40.461121363677499
20
20.21092654448254
30
0
11
-40.461121363677499
21
13.410926544482539
31
0
0
LINE
5
277
100
AcDbEntity
8
0
100
AcDbLine
10
-39.958608800863416
20
20.21092654448254
30
0
11
-39.958608800863416
21
13.410926544482539
31
0
0
LINE
5
278
100
AcDbEntity
8
0
100
AcDbLine
10
-39.456096238049355
20
20.21092654448254
30
0
11
-39.456096238049355
21
13.410926544482539
31
0
0
LINE
5
279
100
AcDbEntity
8
0
100
AcDbLine
10
-38.953583675235279
20
20.21092654448254
30
0
11
-38.953583675235279
21
13.410926544482539
31
0
0
LINE
5
280
100
AcDbEntity
8
0
100
AcDbLine
10
-38.451071112421218
20
20.21092654448254
30
0
11
-38.451071112421218
21
13.410926544482539
31
0
0
LINE
5
281
100
AcDbEntity
8
0
100
AcDbLine
10
-37.948558549607142
20
20.21092654448254
30
0
11
-37.948558549607142
21
13.410926544482539
31
0
0
LINE
5
282
100
AcDbEntity
8
0
100
AcDbLine
10
-37.446045986793081
20
20.21092654448254
30
0
11
-37.446045986793081
21
13.410926544482539
31
0
0
LINE
5
283
100
AcDbEntity
8
0
100
AcDbLine
10
-36.943533423978998
20
20.21092654448254
30
0
11
-36.943533423978998
21
13.410926544482539
31
0
0
LINE
5
284
100
AcDbEntity
8
0
100
AcDbLine
10
-36.441020861164937
20
20.21092654448254
30
0
11
-36.441020861164937
21
13.410926544482539
31
0
0
LINE
5
285
100
AcDbEntity
8
0
100
AcDbLine
10
-35.938508298350854
20
20.21092654448254
30
0
11
-35.938508298350854
21
13.410926544482539
31
0
0
LINE
5
286
100
AcDbEntity
8
0
100
AcDbLine
10
-35.435995735536792
20
20.21092654448254
30
0
11
-35.435995735536792
21
13.410926544482539
31
0
0
LINE
5
287
100
AcDbEntity
8
0
100
AcDbLine
10
-34.933483172722717
20
20.21092654448254
30
0
11
-34.933483172722717
21
13.410926544482539
31
0
0
LINE
5
288
100
AcDbEntity
8
0
100
AcDbLine
10
-34.430970609908655
20
20.21092654448254
30
0
11
-34.430970609908655
21
13.410926544482539
31
0
0
LINE
5
289
100
AcDbEntity
8
0
100
AcDbLine
10
-33.92845804709458
20
20.21092654448254
30
0
11
-33.92845804709458
21
13.410926544482539
31
0
0
LINE
5
290
100
AcDbEntity
8
0
100
AcDbLine
10
-33.425945484280518
20
20.21092654448254
30
0
11
-33.425945484280518
21
13.410926544482539
31
0
0
LINE
5
291
100
AcDbEntity
8
0
100
AcDbLine
10
-32.923432921466436
20
20.21092654448254
30
0
11
-32.923432921466436
21
13.410926544482539
31
0
0
LINE
5
292
100
AcDbEntity
8
0
100
AcDbLine
10
-32.420920358652374
20
20.21092654448254
30
0
11
-32.420920358652374
21
13.410926544482539
31
0
0
LINE
5
293
100
AcDbEntity
8
0
100
AcDbLine
10
-31.918407795838295
20
20.21092654448254
30
0
11
-31.918407795838295
21
13.410926544482539
31
0
0
LINE
5
294
100
AcDbEntity
8
0
100
AcDbLine
10
-31.415895233024234
20
20.21092654448254
30
0
11
-31.415895233024234
21
13.410926544482539
31
0
0
LINE
5
295
100
AcDbEntity
8
0
100
AcDbLine
10
-30.913382670210154
20
20.21092654448254
30
0
11
-30.913382670210154
21
13.410926544482539
31
0
0
LINE
5
296
100
AcDbEntity
8
0
100
AcDbLine
10
-30.410870107396093
20
20.21092654448254
30
0
11
-30.410870107396093
21
13.410926544482539
31
0
0
LINE
5
297
100
AcDbEntity
8
0
100
AcDbLine
10
-29.908357544582014
20
20.21092654448254
30
0
11
-29.908357544582014
21
13.410926544482539
31
0
0
LINE
5
298
100
AcDbEntity
8
0
100
AcDbLine
10
-29.405844981767952
20
20.21092654448254
30
0
11
-29.405844981767952
21
13.410926544482539
31
0
0
LINE
5
299
100
AcDbEntity
8
0
100
AcDbLine
10
-28.903332418953873
20
20.21092654448254
30
0
11
-28.903332418953873
21
13.410926544482539
31
0
0
LINE
5
300
100
AcDbEntity
8
0
100
AcDbLine
10
-28.400819856139812
20
20.21092654448254
30
0
11
-28.400819856139812
21
13.410926544482539
31
0
0
ENDSEC
0
SECTION
2
OBJECTS
0
DICTIONARY
5
C
100
AcDbDictionary
3
ACAD_GROUP
350
D
3
ACAD_MLINESTYLE
350
17
0
DICTIONARY
5
D
100
AcDbDictionary
0
DICTIONARY
5
1A
330
C
100
AcDbDictionary
0
DICTIONARY
5
17
100
AcDbDictionary
0
ENDSEC
0
EOF
