<?xml version="1.0" encoding="utf-8"?>
<!-- Generator: Adobe Illustrator 18.1.1, SVG Export Plug-In . SVG Version: 6.00 Build 0)  -->
<svg version="1.1" id="Layer_1" xmlns="http://www.w3.org/2000/svg" xmlns:xlink="http://www.w3.org/1999/xlink" x="0px" y="0px"
	 width="3458.3px" height="1729.1px" viewBox="0 0 3458.3 1729.1" enable-background="new 0 0 3458.3 1729.1" xml:space="preserve">
<g>
	<g id="CIRCLE_13_">
		
			<path fill="none" stroke="#000000" stroke-width="0.7087" stroke-linecap="round" stroke-linejoin="round" stroke-miterlimit="10" d="
			M753.8,129.7c0-1.6,1.3-2.9,2.9-2.9c1.6,0,2.9,1.3,2.9,2.9c0,1.6-1.3,2.9-2.9,2.9C755.1,132.6,753.8,131.3,753.8,129.7
			L753.8,129.7z"/>
	</g>
	<g id="CIRCLE_12_">
		
			<path fill="none" stroke="#000000" stroke-width="0.7087" stroke-linecap="round" stroke-linejoin="round" stroke-miterlimit="10" d="
			M753.8,51.9c0-1.6,1.3-2.9,2.9-2.9c1.6,0,2.9,1.3,2.9,2.9c0,1.6-1.3,2.9-2.9,2.9C755.1,54.8,753.8,53.5,753.8,51.9L753.8,51.9z"/>
	</g>
	<g id="CIRCLE_11_">
		
			<path fill="none" stroke="#000000" stroke-width="0.7087" stroke-linecap="round" stroke-linejoin="round" stroke-miterlimit="10" d="
			M776.3,90.8c0-1.6,1.3-2.9,2.9-2.9c1.6,0,2.9,1.3,2.9,2.9s-1.3,2.9-2.9,2.9C777.6,93.7,776.3,92.4,776.3,90.8L776.3,90.8z"/>
	</g>
	<g id="CIRCLE_10_">
		
			<path fill="none" stroke="#000000" stroke-width="0.7087" stroke-linecap="round" stroke-linejoin="round" stroke-miterlimit="10" d="
			M686.4,90.8c0-1.6,1.3-2.9,2.9-2.9s2.9,1.3,2.9,2.9s-1.3,2.9-2.9,2.9S686.4,92.4,686.4,90.8L686.4,90.8z"/>
	</g>
	<g id="CIRCLE_9_">
		
			<path fill="none" stroke="#000000" stroke-width="0.7087" stroke-linecap="round" stroke-linejoin="round" stroke-miterlimit="10" d="
			M708.9,51.9c0-1.6,1.3-2.9,2.9-2.9c1.6,0,2.9,1.3,2.9,2.9c0,1.6-1.3,2.9-2.9,2.9C710.1,54.8,708.9,53.5,708.9,51.9L708.9,51.9z"/>
	</g>
	<g id="CIRCLE_8_">
		
			<path fill="none" stroke="#000000" stroke-width="0.7087" stroke-linecap="round" stroke-linejoin="round" stroke-miterlimit="10" d="
			M708.9,129.7c0-1.6,1.3-2.9,2.9-2.9c1.6,0,2.9,1.3,2.9,2.9c0,1.6-1.3,2.9-2.9,2.9C710.1,132.6,708.9,131.3,708.9,129.7
			L708.9,129.7z"/>
	</g>
	<g id="CIRCLE_7_">
		
			<path fill="none" stroke="#000000" stroke-width="0.7087" stroke-linecap="round" stroke-linejoin="round" stroke-miterlimit="10" d="
			M715.4,111.1c0-10.4,8.4-18.8,18.8-18.8c10.4,0,18.8,8.4,18.8,18.8s-8.4,18.8-18.8,18.8C723.8,130,715.4,121.5,715.4,111.1
			L715.4,111.1z"/>
	</g>
	<g id="LWPOLYLINE_1_">
		
			<path fill="none" stroke="#000000" stroke-width="0.7087" stroke-linecap="round" stroke-linejoin="round" stroke-miterlimit="10" d="
			M680.6,90.8c0-29.5,23.9-53.5,53.4-53.6c29.6-0.1,53.7,23.8,53.9,53.4l0.3,65.8H680.6V90.8z"/>
	</g>
</g>
<g>
	<g id="CIRCLE_19_">
		
			<path fill="none" stroke="#000000" stroke-width="0.7087" stroke-linecap="round" stroke-linejoin="round" stroke-miterlimit="10" d="
			M677.8,717.7c0-1.6,1.3-2.9,2.9-2.9c1.6,0,2.9,1.3,2.9,2.9c0,1.6-1.3,2.9-2.9,2.9C679.1,720.6,677.8,719.3,677.8,717.7
			L677.8,717.7z"/>
	</g>
	<g id="CIRCLE_18_">
		
			<path fill="none" stroke="#000000" stroke-width="0.7087" stroke-linecap="round" stroke-linejoin="round" stroke-miterlimit="10" d="
			M677.8,639.9c0-1.6,1.3-2.9,2.9-2.9c1.6,0,2.9,1.3,2.9,2.9c0,1.6-1.3,2.9-2.9,2.9C679.1,642.8,677.8,641.5,677.8,639.9
			L677.8,639.9z"/>
	</g>
	<g id="CIRCLE_17_">
		
			<path fill="none" stroke="#000000" stroke-width="0.7087" stroke-linecap="round" stroke-linejoin="round" stroke-miterlimit="10" d="
			M700.3,678.8c0-1.6,1.3-2.9,2.9-2.9c1.6,0,2.9,1.3,2.9,2.9s-1.3,2.9-2.9,2.9C701.6,681.7,700.3,680.4,700.3,678.8L700.3,678.8z"/>
	</g>
	<g id="CIRCLE_4_">
		
			<path fill="none" stroke="#000000" stroke-width="0.7087" stroke-linecap="round" stroke-linejoin="round" stroke-miterlimit="10" d="
			M610.4,678.8c0-1.6,1.3-2.9,2.9-2.9c1.6,0,2.9,1.3,2.9,2.9s-1.3,2.9-2.9,2.9C611.7,681.7,610.4,680.4,610.4,678.8L610.4,678.8z"/>
	</g>
	<g id="CIRCLE_3_">
		
			<path fill="none" stroke="#000000" stroke-width="0.7087" stroke-linecap="round" stroke-linejoin="round" stroke-miterlimit="10" d="
			M632.9,639.9c0-1.6,1.3-2.9,2.9-2.9s2.9,1.3,2.9,2.9c0,1.6-1.3,2.9-2.9,2.9S632.9,641.5,632.9,639.9L632.9,639.9z"/>
	</g>
	<g id="CIRCLE_2_">
		
			<path fill="none" stroke="#000000" stroke-width="0.7087" stroke-linecap="round" stroke-linejoin="round" stroke-miterlimit="10" d="
			M632.9,717.7c0-1.6,1.3-2.9,2.9-2.9s2.9,1.3,2.9,2.9c0,1.6-1.3,2.9-2.9,2.9S632.9,719.3,632.9,717.7L632.9,717.7z"/>
	</g>
	<g id="CIRCLE_1_">
		
			<path fill="none" stroke="#000000" stroke-width="0.7087" stroke-linecap="round" stroke-linejoin="round" stroke-miterlimit="10" d="
			M639.4,699.1c0-10.4,8.4-18.8,18.8-18.8c10.4,0,18.8,8.4,18.8,18.8c0,10.4-8.4,18.8-18.8,18.8C647.8,718,639.4,709.5,639.4,699.1
			L639.4,699.1z"/>
	</g>
	<g id="LWPOLYLINE_2_">
		
			<path fill="none" stroke="#000000" stroke-width="0.7087" stroke-linecap="round" stroke-linejoin="round" stroke-miterlimit="10" d="
			M604.6,678.8c0-29.5,23.9-53.5,53.4-53.6c29.6-0.1,53.7,23.8,53.9,53.4l0.3,65.8H604.6V678.8z"/>
	</g>
</g>
<g>
	<g id="CIRCLE_42_">
		
			<path fill="none" stroke="#000000" stroke-width="0.7087" stroke-linecap="round" stroke-linejoin="round" stroke-miterlimit="10" d="
			M799,715.9c0-1.6,1.3-2.9,2.9-2.9c1.6,0,2.9,1.3,2.9,2.9s-1.3,2.9-2.9,2.9C800.3,718.8,799,717.5,799,715.9L799,715.9z"/>
	</g>
	<g id="CIRCLE_41_">
		
			<path fill="none" stroke="#000000" stroke-width="0.7087" stroke-linecap="round" stroke-linejoin="round" stroke-miterlimit="10" d="
			M799,638c0-1.6,1.3-2.9,2.9-2.9c1.6,0,2.9,1.3,2.9,2.9c0,1.6-1.3,2.9-2.9,2.9C800.3,640.9,799,639.6,799,638L799,638z"/>
	</g>
	<g id="CIRCLE_40_">
		
			<path fill="none" stroke="#000000" stroke-width="0.7087" stroke-linecap="round" stroke-linejoin="round" stroke-miterlimit="10" d="
			M821.5,677c0-1.6,1.3-2.9,2.9-2.9c1.6,0,2.9,1.3,2.9,2.9s-1.3,2.9-2.9,2.9C822.8,679.9,821.5,678.6,821.5,677L821.5,677z"/>
	</g>
	<g id="CIRCLE_39_">
		
			<path fill="none" stroke="#000000" stroke-width="0.7087" stroke-linecap="round" stroke-linejoin="round" stroke-miterlimit="10" d="
			M731.6,677c0-1.6,1.3-2.9,2.9-2.9s2.9,1.3,2.9,2.9s-1.3,2.9-2.9,2.9S731.6,678.6,731.6,677L731.6,677z"/>
	</g>
	<g id="CIRCLE_22_">
		
			<path fill="none" stroke="#000000" stroke-width="0.7087" stroke-linecap="round" stroke-linejoin="round" stroke-miterlimit="10" d="
			M754.1,638c0-1.6,1.3-2.9,2.9-2.9c1.6,0,2.9,1.3,2.9,2.9c0,1.6-1.3,2.9-2.9,2.9C755.4,640.9,754.1,639.6,754.1,638L754.1,638z"/>
	</g>
	<g id="CIRCLE_21_">
		
			<path fill="none" stroke="#000000" stroke-width="0.7087" stroke-linecap="round" stroke-linejoin="round" stroke-miterlimit="10" d="
			M754.1,715.9c0-1.6,1.3-2.9,2.9-2.9c1.6,0,2.9,1.3,2.9,2.9s-1.3,2.9-2.9,2.9C755.4,718.8,754.1,717.5,754.1,715.9L754.1,715.9z"/>
	</g>
	<g id="CIRCLE_20_">
		
			<path fill="none" stroke="#000000" stroke-width="0.7087" stroke-linecap="round" stroke-linejoin="round" stroke-miterlimit="10" d="
			M760.6,697.3c0-10.4,8.4-18.8,18.8-18.8c10.4,0,18.8,8.4,18.8,18.8c0,10.4-8.4,18.8-18.8,18.8C769,716.1,760.6,707.7,760.6,697.3
			L760.6,697.3z"/>
	</g>
	<g id="LWPOLYLINE_3_">
		
			<path fill="none" stroke="#000000" stroke-width="0.7087" stroke-linecap="round" stroke-linejoin="round" stroke-miterlimit="10" d="
			M725.8,677c0-29.5,23.9-53.5,53.4-53.6c29.6-0.1,53.7,23.8,53.9,53.4l0.3,65.8H725.8V677z"/>
	</g>
</g>
<g>
	<g id="CIRCLE_38_">
		
			<path fill="none" stroke="#000000" stroke-width="0.7087" stroke-linecap="round" stroke-linejoin="round" stroke-miterlimit="10" d="
			M97.7,212.6c0-1.6,1.3-2.8,2.8-2.8c1.6,0,2.8,1.3,2.8,2.8c0,1.6-1.3,2.8-2.8,2.8C98.9,215.4,97.7,214.1,97.7,212.6L97.7,212.6z"/>
	</g>
	<g id="CIRCLE_37_">
		
			<path fill="none" stroke="#000000" stroke-width="0.7087" stroke-linecap="round" stroke-linejoin="round" stroke-miterlimit="10" d="
			M367.9,678.4c0-1.6,1.3-2.8,2.8-2.8c1.6,0,2.8,1.3,2.8,2.8s-1.3,2.8-2.8,2.8C369.2,681.2,367.9,680,367.9,678.4L367.9,678.4z"/>
	</g>
	<g id="CIRCLE_36_">
		
			<path fill="none" stroke="#000000" stroke-width="0.7087" stroke-linecap="round" stroke-linejoin="round" stroke-miterlimit="10" d="
			M636.2,211.4c0-1.6,1.3-2.8,2.8-2.8s2.8,1.3,2.8,2.8c0,1.6-1.3,2.8-2.8,2.8S636.2,213,636.2,211.4L636.2,211.4z"/>
	</g>
	<g id="CIRCLE_35_">
		
			<path fill="none" stroke="#000000" stroke-width="0.7087" stroke-linecap="round" stroke-linejoin="round" stroke-miterlimit="10" d="
			M173.8,368.8c0-1.6,1.3-2.8,2.8-2.8s2.8,1.3,2.8,2.8s-1.3,2.8-2.8,2.8S173.8,370.4,173.8,368.8L173.8,368.8z"/>
	</g>
	<g id="CIRCLE_34_">
		
			<path fill="none" stroke="#000000" stroke-width="0.7087" stroke-linecap="round" stroke-linejoin="round" stroke-miterlimit="10" d="
			M465.1,534.3c0-1.6,1.3-2.8,2.8-2.8c1.6,0,2.8,1.3,2.8,2.8c0,1.6-1.3,2.8-2.8,2.8C466.4,537.2,465.1,535.9,465.1,534.3
			L465.1,534.3z"/>
	</g>
	<g id="CIRCLE_33_">
		
			<path fill="none" stroke="#000000" stroke-width="0.7087" stroke-linecap="round" stroke-linejoin="round" stroke-miterlimit="10" d="
			M270.7,638.1c0-1.6,1.3-2.8,2.8-2.8c1.6,0,2.8,1.3,2.8,2.8c0,1.6-1.3,2.8-2.8,2.8C272,640.9,270.7,639.6,270.7,638.1L270.7,638.1z
			"/>
	</g>
	<g id="CIRCLE_32_">
		
			<path fill="none" stroke="#000000" stroke-width="0.7087" stroke-linecap="round" stroke-linejoin="round" stroke-miterlimit="10" d="
			M181.2,148.5c0-1.6,1.3-2.8,2.8-2.8s2.8,1.3,2.8,2.8c0,1.6-1.3,2.8-2.8,2.8S181.2,150.1,181.2,148.5L181.2,148.5z"/>
	</g>
	<g id="CIRCLE_31_">
		
			<path fill="none" stroke="#000000" stroke-width="0.7087" stroke-linecap="round" stroke-linejoin="round" stroke-miterlimit="10" d="
			M465.1,638.1c0-1.6,1.3-2.8,2.8-2.8c1.6,0,2.8,1.3,2.8,2.8c0,1.6-1.3,2.8-2.8,2.8C466.4,640.9,465.1,639.6,465.1,638.1
			L465.1,638.1z"/>
	</g>
	<g id="CIRCLE_30_">
		
			<path fill="none" stroke="#000000" stroke-width="0.7087" stroke-linecap="round" stroke-linejoin="round" stroke-miterlimit="10" d="
			M84,316.9c0-1.6,1.3-2.8,2.8-2.8c1.6,0,2.8,1.3,2.8,2.8c0,1.6-1.3,2.8-2.8,2.8C85.3,319.8,84,318.5,84,316.9L84,316.9z"/>
	</g>
	<g id="CIRCLE_29_">
		
			<path fill="none" stroke="#000000" stroke-width="0.7087" stroke-linecap="round" stroke-linejoin="round" stroke-miterlimit="10" d="
			M560.1,367.7c0-1.6,1.3-2.8,2.8-2.8c1.6,0,2.8,1.3,2.8,2.8s-1.3,2.8-2.8,2.8C561.3,370.5,560.1,369.2,560.1,367.7L560.1,367.7z"/>
	</g>
	<g id="CIRCLE_28_">
		
			<path fill="none" stroke="#000000" stroke-width="0.7087" stroke-linecap="round" stroke-linejoin="round" stroke-miterlimit="10" d="
			M271.1,200.4c0-1.6,1.3-2.8,2.8-2.8s2.8,1.3,2.8,2.8s-1.3,2.8-2.8,2.8S271.1,202,271.1,200.4L271.1,200.4z"/>
	</g>
	<g id="CIRCLE_27_">
		
			<path fill="none" stroke="#000000" stroke-width="0.7087" stroke-linecap="round" stroke-linejoin="round" stroke-miterlimit="10" d="
			M270.7,534.3c0-1.6,1.3-2.8,2.8-2.8c1.6,0,2.8,1.3,2.8,2.8c0,1.6-1.3,2.8-2.8,2.8C272,537.2,270.7,535.9,270.7,534.3L270.7,534.3z
			"/>
	</g>
	<g id="CIRCLE_26_">
		
			<path fill="none" stroke="#000000" stroke-width="0.7087" stroke-linecap="round" stroke-linejoin="round" stroke-miterlimit="10" d="
			M649.9,315.8c0-1.6,1.3-2.8,2.8-2.8c1.6,0,2.8,1.3,2.8,2.8c0,1.6-1.3,2.8-2.8,2.8C651.2,318.6,649.9,317.4,649.9,315.8
			L649.9,315.8z"/>
	</g>
	<g id="CIRCLE_25_">
		
			<path fill="none" stroke="#000000" stroke-width="0.7087" stroke-linecap="round" stroke-linejoin="round" stroke-miterlimit="10" d="
			M552.7,147.4c0-1.6,1.3-2.8,2.8-2.8s2.8,1.3,2.8,2.8c0,1.6-1.3,2.8-2.8,2.8S552.7,149,552.7,147.4L552.7,147.4z"/>
	</g>
	<g id="CIRCLE_24_">
		
			<path fill="none" stroke="#000000" stroke-width="0.7087" stroke-linecap="round" stroke-linejoin="round" stroke-miterlimit="10" d="
			M462.8,199.3c0-1.6,1.3-2.8,2.8-2.8c1.6,0,2.8,1.3,2.8,2.8c0,1.6-1.3,2.8-2.8,2.8C464.1,202.1,462.8,200.8,462.8,199.3
			L462.8,199.3z"/>
	</g>
	<g id="LWPOLYLINE_12_">
		
			<rect x="597.8" y="449" transform="matrix(-0.866 -0.5 0.5 -0.866 873.7457 1237.2887)" fill="none" stroke="#000000" stroke-width="0.7087" stroke-linecap="round" stroke-linejoin="round" stroke-miterlimit="10" width="9.6" height="105.1"/>
	</g>
	<g id="LWPOLYLINE_11_">
		
			<rect x="317.4" y="94.2" fill="none" stroke="#000000" stroke-width="0.7087" stroke-linecap="round" stroke-linejoin="round" stroke-miterlimit="10" width="105.1" height="9.6"/>
	</g>
	<g id="LWPOLYLINE_10_">
		
			<rect x="132.9" y="449.2" transform="matrix(0.866 -0.5 0.5 0.866 -232.4449 136.0685)" fill="none" stroke="#000000" stroke-width="0.7087" stroke-linecap="round" stroke-linejoin="round" stroke-miterlimit="10" width="9.6" height="105.1"/>
	</g>
	<g id="LWPOLYLINE_9_">
		
			<rect x="563.4" y="501.4" transform="matrix(0.5 -0.866 0.866 0.5 -133.1801 814.645)" fill="none" stroke="#000000" stroke-width="0.7087" stroke-linecap="round" stroke-linejoin="round" stroke-miterlimit="10" width="150.9" height="42.5"/>
	</g>
	<g id="LWPOLYLINE_8_">
		
			<rect x="294.6" y="35.8" fill="none" stroke="#000000" stroke-width="0.7087" stroke-linecap="round" stroke-linejoin="round" stroke-miterlimit="10" width="150.9" height="42.5"/>
	</g>
	<g id="LWPOLYLINE_7_">
		
			<rect x="25.8" y="501.4" transform="matrix(0.5 0.866 -0.866 0.5 503.2844 173.6054)" fill="none" stroke="#000000" stroke-width="0.7087" stroke-linecap="round" stroke-linejoin="round" stroke-miterlimit="10" width="150.9" height="42.5"/>
	</g>
	<g id="CIRCLE_23_">
		
			<path fill="none" stroke="#000000" stroke-width="0.7087" stroke-linecap="round" stroke-linejoin="round" stroke-miterlimit="10" d="
			M15.8,367.5c0-195.7,158.6-354.3,354.3-354.3s354.3,158.6,354.3,354.3S565.8,721.8,370.1,721.8S15.8,563.2,15.8,367.5L15.8,367.5z
			"/>
	</g>
</g>
<g>
	<g id="CIRCLE_16_">
		
			<path fill="none" stroke="#000000" stroke-width="0.7087" stroke-linecap="round" stroke-linejoin="round" stroke-miterlimit="10" d="
			M1356.5,216.7c0-1.6,1.3-2.8,2.8-2.8c1.6,0,2.8,1.3,2.8,2.8c0,1.6-1.3,2.8-2.8,2.8C1357.7,219.5,1356.5,218.2,1356.5,216.7
			L1356.5,216.7z"/>
	</g>
	<g id="CIRCLE_15_">
		
			<path fill="none" stroke="#000000" stroke-width="0.7087" stroke-linecap="round" stroke-linejoin="round" stroke-miterlimit="10" d="
			M1019.5,372.7c0-39.1,31.7-70.9,70.9-70.9s70.9,31.7,70.9,70.9s-31.7,70.9-70.9,70.9S1019.5,411.8,1019.5,372.7L1019.5,372.7z"/>
	</g>
	<g id="CIRCLE_14_">
		
			<path fill="none" stroke="#000000" stroke-width="0.7087" stroke-linecap="round" stroke-linejoin="round" stroke-miterlimit="10" d="
			M1088.1,683.6c0-1.6,1.3-2.8,2.8-2.8c1.6,0,2.8,1.3,2.8,2.8c0,1.6-1.3,2.8-2.8,2.8C1089.4,686.5,1088.1,685.2,1088.1,683.6
			L1088.1,683.6z"/>
	</g>
	<g id="CIRCLE_6_">
		
			<path fill="none" stroke="#000000" stroke-width="0.7087" stroke-linecap="round" stroke-linejoin="round" stroke-miterlimit="10" d="
			M817.9,217.8c0-1.6,1.3-2.8,2.8-2.8c1.6,0,2.8,1.3,2.8,2.8c0,1.6-1.3,2.8-2.8,2.8C819.2,220.6,817.9,219.4,817.9,217.8
			L817.9,217.8z"/>
	</g>
	<g id="CIRCLE_5_">
		
			<path fill="none" stroke="#000000" stroke-width="0.7087" stroke-linecap="round" stroke-linejoin="round" stroke-miterlimit="10" d="
			M736,372.7C736,177,894.6,18.4,1090.3,18.4s354.3,158.6,354.3,354.3S1286,727,1090.3,727S736,568.4,736,372.7L736,372.7z"/>
	</g>
</g>
</svg>
